<?xml version="1.0" encoding="utf-8"?>
<!-- Generator: Adobe Illustrator 16.0.4, SVG Export Plug-In . SVG Version: 6.00 Build 0)  -->
<!DOCTYPE svg PUBLIC "-//W3C//DTD SVG 1.1//EN" "http://www.w3.org/Graphics/SVG/1.1/DTD/svg11.dtd">
<svg version="1.1" id="Warstwa_1" xmlns="http://www.w3.org/2000/svg" xmlns:xlink="http://www.w3.org/1999/xlink" x="0px" y="0px"
	 width="50.4px" height="47.584px" viewBox="0 0 50.4 47.584" enable-background="new 0 0 50.4 47.584" xml:space="preserve">
<path fill="#FFFFFF" d="M36.147,32.092c-1.219-0.317-2.271-0.592-2.705-0.786c-0.817-0.367-1.116-1.894-1.065-3.367
	c1.172-1.385,2.071-3.48,2.742-6.375c0.516-0.333,0.993-0.874,1.414-1.603c0.811-1.409,1.448-3.661,0.934-5.274
	c-0.334-1.044-0.984-1.704-1.502-2.085c0-0.771-0.002-2.05-0.029-3.082c-0.129-4.768-2.707-7.08-4.848-8.178
	C28.739,0.133,26.214,0,25.221,0c-0.013,0-0.024,0-0.037,0c-0.996,0-3.521,0.133-5.87,1.34c-2.14,1.099-4.718,3.41-4.846,8.178
	c-0.028,1.032-0.031,2.31-0.03,3.082c-0.519,0.382-1.168,1.041-1.502,2.085c-0.516,1.613,0.123,3.865,0.935,5.275
	c0.419,0.729,0.897,1.27,1.413,1.602c0.67,2.895,1.571,4.992,2.742,6.376c0.052,1.474-0.249,3-1.065,3.367
	c-0.435,0.193-1.486,0.469-2.705,0.785C8.923,33.479,0,35.802,0,41.601v4.782c0,0.663,0.537,1.201,1.2,1.201
	c0.662,0,1.199-0.538,1.199-1.201v-4.782c0-3.942,8.104-6.053,12.458-7.187c1.433-0.373,2.468-0.644,3.084-0.92
	c2.555-1.146,2.567-4.675,2.454-6.138c-0.021-0.276-0.139-0.539-0.332-0.739c-1.085-1.124-1.924-3.133-2.564-6.142
	c-0.098-0.454-0.446-0.811-0.896-0.917c-0.172-0.081-0.664-0.604-1.068-1.689c-0.407-1.092-0.45-2.019-0.312-2.453
	c0.223-0.696,0.792-0.991,0.877-1.031c0.473-0.176,0.745-0.613,0.742-1.118c0-0.021-0.015-2.167,0.025-3.684
	C17.045,2.926,23.251,2.4,25.185,2.4c0.012,0,0.023,0,0.036,0c1.93,0,8.135,0.526,8.313,7.182c0.041,1.517,0.026,3.663,0.024,3.684
	c-0.002,0.505,0.271,0.943,0.742,1.118c0.086,0.041,0.654,0.335,0.877,1.031c0.139,0.434,0.098,1.36-0.311,2.453
	c-0.406,1.085-0.898,1.608-1.07,1.689c-0.449,0.106-0.799,0.463-0.896,0.917c-0.641,3.008-1.479,5.018-2.563,6.142
	c-0.193,0.201-0.312,0.463-0.332,0.74c-0.113,1.463-0.101,4.99,2.455,6.137c0.615,0.277,1.649,0.547,3.082,0.92
	C39.895,35.548,48,37.657,48,41.601v4.598v0.186c0,0.663,0.537,1.201,1.199,1.201c0.663,0,1.2-0.538,1.2-1.201v-4.783
	C50.401,35.802,41.477,33.479,36.147,32.092z"/>
</svg>
