<?xml version="1.0" encoding="utf-8"?>
<!-- Generator: Adobe Illustrator 16.0.4, SVG Export Plug-In . SVG Version: 6.00 Build 0)  -->
<!DOCTYPE svg PUBLIC "-//W3C//DTD SVG 1.1//EN" "http://www.w3.org/Graphics/SVG/1.1/DTD/svg11.dtd">
<svg version="1.1" id="Warstwa_1" xmlns="http://www.w3.org/2000/svg" xmlns:xlink="http://www.w3.org/1999/xlink" x="0px" y="0px"
	 width="45.6px" height="28.801px" viewBox="0 0 45.6 28.801" enable-background="new 0 0 45.6 28.801" xml:space="preserve">
<g>
	<g>
		<path fill="#FFFFFF" d="M24,13.898h16.2c0.661,0,1.198-0.537,1.198-1.2c0-0.661-0.537-1.198-1.198-1.198H24
			c-0.663,0-1.2,0.537-1.2,1.198C22.8,13.361,23.337,13.898,24,13.898z M24,18.698h16.2c0.661,0,1.198-0.537,1.198-1.199
			c0-0.663-0.537-1.2-1.198-1.2H24c-0.663,0-1.2,0.537-1.2,1.2C22.8,18.16,23.337,18.698,24,18.698z M24,23.497h7.385
			c0.663,0,1.2-0.537,1.2-1.2c0-0.662-0.537-1.199-1.2-1.199H24c-0.663,0-1.2,0.537-1.2,1.199C22.8,22.96,23.337,23.497,24,23.497z
			 M44.399,0H1.2C0.537,0,0,0.537,0,1.2V27.6c0,0.663,0.537,1.2,1.2,1.2h43.198c0.663,0,1.2-0.537,1.2-1.2V1.2
			C45.6,0.537,45.062,0,44.399,0z M43.2,26.4H2.399v-24H43.2V26.4z"/>
	</g>
</g>
</svg>
