<?xml version="1.0" encoding="utf-8"?>
<!-- Generator: Adobe Illustrator 16.0.4, SVG Export Plug-In . SVG Version: 6.00 Build 0)  -->
<!DOCTYPE svg PUBLIC "-//W3C//DTD SVG 1.1//EN" "http://www.w3.org/Graphics/SVG/1.1/DTD/svg11.dtd">
<svg version="1.1" id="Warstwa_1" xmlns="http://www.w3.org/2000/svg" xmlns:xlink="http://www.w3.org/1999/xlink" x="0px" y="0px"
	 width="56.695px" height="48.332px" viewBox="0 0 56.695 48.332" enable-background="new 0 0 56.695 48.332" xml:space="preserve">
<g>
	<g>
		<path d="M37.57,1.008c-0.144-0.514-0.567-0.899-1.087-0.988c-0.52-0.091-1.041,0.133-1.337,0.57
			c-3.597,5.308-7.632,8.812-10.952,11.055c-1.933,1.307-3.62,2.185-4.836,2.739c-0.918,0.418-1.567,0.653-1.849,0.748l0.68,2.433
			l0.061,0.219c0.294-0.093,1.047-0.348,2.136-0.833c1.623-0.723,3.983-1.958,6.648-3.921c1.252-0.923,2.571-2.006,3.914-3.273
			c1.585-1.497,3.2-3.247,4.774-5.297l7.653,27.365c-1.829-0.654-3.567-1.171-5.21-1.581c-2.377-0.595-4.551-0.963-6.484-1.173
			c-2.604-0.282-4.775-0.281-6.447-0.18c-2.045,0.124-3.336,0.398-3.74,0.495l0.143,0.511l0.244,0.872l0.352,1.269
			c0.403-0.089,1.583-0.316,3.425-0.41c1.671-0.086,3.888-0.059,6.558,0.28c3.512,0.446,7.807,1.434,12.694,3.434
			c0.283,0.116,0.588,0.13,0.869,0.051c0.197-0.055,0.383-0.155,0.539-0.298c0.383-0.348,0.537-0.887,0.396-1.391L37.57,1.008z
			 M45.41,7.947l-1.282,2.318c1.94,1.129,3.336,2.934,3.944,5.106c0.585,2.093,0.366,4.289-0.614,6.213l2.329,1.254
			c1.296-2.531,1.589-5.426,0.819-8.176C49.807,11.805,47.965,9.428,45.41,7.947z M56.071,13.133
			c-1.189-4.256-3.938-7.797-7.748-9.998l-1.282,2.318c3.194,1.848,5.498,4.818,6.497,8.389c0.961,3.436,0.595,7.054-1.03,10.217
			l2.329,1.254C56.777,21.542,57.215,17.227,56.071,13.133z M19.833,32.572l-0.563-2.013l-4.189-14.979l-8.448,2.362
			c-4.828,1.351-7.65,6.402-6.292,11.263c1.043,3.728,4.25,6.267,7.865,6.643l9.71,11.977c0.343,0.423,0.898,0.603,1.415,0.458
			l6.579-1.84c0.404-0.113,0.732-0.41,0.888-0.804c0.156-0.395,0.123-0.841-0.091-1.209L19.833,32.572z M2.95,28.476
			c-0.951-3.4,1.034-6.938,4.424-7.886l5.587-1.562l3.449,12.331l-5.587,1.563C7.433,33.871,3.901,31.875,2.95,28.476z
			 M19.443,45.397l-7.938-9.791l5.983-1.674l5.991,10.336L19.443,45.397z"/>
	</g>
</g>
</svg>
