<?xml version="1.0" encoding="utf-8"?>
<!-- Generator: Adobe Illustrator 16.0.4, SVG Export Plug-In . SVG Version: 6.00 Build 0)  -->
<!DOCTYPE svg PUBLIC "-//W3C//DTD SVG 1.1//EN" "http://www.w3.org/Graphics/SVG/1.1/DTD/svg11.dtd">
<svg version="1.1" id="Warstwa_1" xmlns="http://www.w3.org/2000/svg" xmlns:xlink="http://www.w3.org/1999/xlink" x="0px" y="0px"
	 width="39.4px" height="46.156px" viewBox="0 0 39.4 46.156" enable-background="new 0 0 39.4 46.156" xml:space="preserve">
<g>
	<path fill="#FFFFFF" d="M38.901,7.7c0-1.529-1.058-3.703-6.094-5.382C29.289,1.146,24.633,0.5,19.7,0.5
		c-4.935,0-9.589,0.646-13.107,1.817C1.557,3.997,0.5,6.171,0.5,7.7c0,0.012,0.001,0.023,0.001,0.036
		c0,0.006-0.001,0.011-0.001,0.017v10.2c0,0.012,0.001,0.023,0.001,0.036C0.501,17.994,0.5,18,0.5,18.005v10.199
		c0,0.013,0.001,0.024,0.001,0.037c0,0.006-0.001,0.011-0.001,0.016v10.201c0,1.526,1.057,3.701,6.093,5.381
		c3.519,1.172,8.174,1.817,13.107,1.817c4.933,0,9.588-0.646,13.106-1.817c5.036-1.68,6.094-3.854,6.094-5.381V28.257
		c0-0.005-0.002-0.01-0.002-0.016c0-0.013,0.002-0.024,0.002-0.037V18.005c0-0.005-0.002-0.011-0.002-0.017
		c0-0.012,0.002-0.023,0.002-0.036v-10.2c0-0.006-0.002-0.011-0.002-0.017C38.899,7.724,38.901,7.711,38.901,7.7z M36.5,38.458
		c0,1.957-6.545,4.799-16.8,4.799C9.445,43.257,2.9,40.415,2.9,38.458v-6.535c0.892,0.598,2.091,1.182,3.692,1.716
		c3.519,1.173,8.174,1.819,13.107,1.819c4.933,0,9.588-0.646,13.106-1.819c1.604-0.534,2.803-1.118,3.693-1.716L36.5,38.458
		L36.5,38.458z M36.5,28.204c0,1.958-6.545,4.801-16.8,4.801C9.445,33.005,2.9,30.162,2.9,28.204V21.67
		c0.892,0.598,2.091,1.182,3.692,1.716c3.519,1.174,8.174,1.818,13.107,1.818c4.933,0,9.588-0.646,13.106-1.818
		c1.604-0.534,2.803-1.118,3.693-1.716L36.5,28.204L36.5,28.204z M36.5,17.952c0,1.958-6.545,4.8-16.8,4.8
		c-10.256,0-16.801-2.843-16.801-4.8v-6.535c0.892,0.598,2.091,1.182,3.692,1.716c3.519,1.173,8.174,1.819,13.107,1.819
		c4.933,0,9.588-0.646,13.106-1.819c1.604-0.534,2.803-1.119,3.693-1.716L36.5,17.952L36.5,17.952z M19.7,12.5
		C9.445,12.5,2.9,9.656,2.9,7.7C2.9,5.742,9.444,2.9,19.7,2.9c10.256,0,16.8,2.843,16.8,4.801C36.5,9.656,29.956,12.5,19.7,12.5z"/>
</g>
</svg>
