<?xml version="1.0" encoding="utf-8"?>
<!-- Generator: Adobe Illustrator 17.1.0, SVG Export Plug-In . SVG Version: 6.00 Build 0)  -->
<!DOCTYPE svg PUBLIC "-//W3C//DTD SVG 1.1//EN" "http://www.w3.org/Graphics/SVG/1.1/DTD/svg11.dtd">
<svg version="1.1" id="Warstwa_1" xmlns="http://www.w3.org/2000/svg" xmlns:xlink="http://www.w3.org/1999/xlink" x="0px" y="0px"
	 viewBox="0 0 53.1 47" enable-background="new 0 0 53.1 47" xml:space="preserve">
<g>
	<g>
		<path fill="#FFFFFF" d="M32.7,8.1c-0.1-0.3-0.4-0.6-0.7-0.7c-0.3-0.1-0.7,0.1-0.9,0.4c-2.4,3.5-5.1,5.9-7.3,7.4
			c-1.3,0.9-2.4,1.5-3.2,1.8c-0.6,0.3-1,0.4-1.2,0.5l0.5,1.6l0,0.1c0.2-0.1,0.7-0.2,1.4-0.6c1.1-0.5,2.7-1.3,4.4-2.6
			c0.8-0.6,1.7-1.3,2.6-2.2c1.1-1,2.1-2.2,3.2-3.5l5.1,18.2c-1.2-0.4-2.4-0.8-3.5-1.1c-1.6-0.4-3-0.6-4.3-0.8
			c-1.7-0.2-3.2-0.2-4.3-0.1C23.1,26.8,22.3,27,22,27l0.1,0.3l0.2,0.6l0.2,0.8c0.3-0.1,1.1-0.2,2.3-0.3c1.1-0.1,2.6,0,4.4,0.2
			c2.3,0.3,5.2,1,8.4,2.3c0.2,0.1,0.4,0.1,0.6,0c0.1,0,0.3-0.1,0.4-0.2c0.3-0.2,0.4-0.6,0.3-0.9L32.7,8.1z M37.9,12.8l-0.9,1.5
			c1.3,0.8,2.2,2,2.6,3.4c0.4,1.4,0.2,2.9-0.4,4.1l1.5,0.8c0.9-1.7,1.1-3.6,0.5-5.4C40.9,15.3,39.6,13.7,37.9,12.8z M45,16.2
			c-0.8-2.8-2.6-5.2-5.2-6.7L39,11.1c2.1,1.2,3.7,3.2,4.3,5.6c0.6,2.3,0.4,4.7-0.7,6.8l1.5,0.8C45.5,21.8,45.8,18.9,45,16.2z
			 M20.9,29.1l-0.4-1.3l-2.8-10l-5.6,1.6c-3.2,0.9-5.1,4.3-4.2,7.5c0.7,2.5,2.8,4.2,5.2,4.4l6.5,8c0.2,0.3,0.6,0.4,0.9,0.3l4.4-1.2
			c0.3-0.1,0.5-0.3,0.6-0.5c0.1-0.3,0.1-0.6-0.1-0.8L20.9,29.1z M9.7,26.4c-0.6-2.3,0.7-4.6,2.9-5.2l3.7-1l2.3,8.2l-3.7,1
			C12.7,30,10.3,28.7,9.7,26.4z M20.6,37.7l-5.3-6.5l4-1.1l4,6.9L20.6,37.7z"/>
	</g>
</g>
</svg>
