<?xml version="1.0" encoding="utf-8"?>
<!-- Generator: Adobe Illustrator 16.0.4, SVG Export Plug-In . SVG Version: 6.00 Build 0)  -->
<!DOCTYPE svg PUBLIC "-//W3C//DTD SVG 1.1//EN" "http://www.w3.org/Graphics/SVG/1.1/DTD/svg11.dtd">
<svg version="1.1" id="Warstwa_1" xmlns="http://www.w3.org/2000/svg" xmlns:xlink="http://www.w3.org/1999/xlink" x="0px" y="0px"
	 width="59px" height="36.438px" viewBox="0 0 59 36.438" enable-background="new 0 0 59 36.438" xml:space="preserve">
<path fill="#FFFFFF" d="M56.25,35.518c0,0-0.006-13.505-0.002-18.934c0-1.808-3.416-3.465-9.137-4.438
	c-4.979-0.845-10.021-0.916-10.07-0.917l-1.357-0.017V9.516l-6.826-4.239l-6.775,4.236v1.718h-6.6V2.756H2.749v33.683H0V0h18.233
	v8.475h1.101V7.983l9.52-5.951l9.58,5.948v0.534c1.893,0.077,5.491,0.296,9.139,0.915c3.113,0.529,5.615,1.245,7.438,2.128
	c2.648,1.284,3.99,2.975,3.988,5.027C58.995,22.013,59,35.517,59,35.517L56.25,35.518z"/>
</svg>
