<?xml version="1.0" encoding="utf-8"?>
<!-- Generator: Adobe Illustrator 16.0.4, SVG Export Plug-In . SVG Version: 6.00 Build 0)  -->
<!DOCTYPE svg PUBLIC "-//W3C//DTD SVG 1.1//EN" "http://www.w3.org/Graphics/SVG/1.1/DTD/svg11.dtd">
<svg version="1.1" id="Warstwa_1" xmlns="http://www.w3.org/2000/svg" xmlns:xlink="http://www.w3.org/1999/xlink" x="0px" y="0px"
	 width="39.6px" height="49.801px" viewBox="0 0 39.6 49.801" enable-background="new 0 0 39.6 49.801" xml:space="preserve">
<g>
	<g>
		<path fill="#FFFFFF" d="M38.399,9.002H5.7c-1.82,0-3.302-1.48-3.302-3.301C2.399,3.88,3.88,2.4,5.7,2.4h32.698
			c0.663,0,1.2-0.537,1.2-1.199S39.062,0,38.399,0H5.7C2.557,0,0,2.559,0,5.701c0,0.208,0.012,0.412,0.033,0.614
			C0.013,6.405,0,6.498,0,6.594V44.1c0,3.145,2.557,5.701,5.7,5.701h32.698c0.663,0,1.2-0.537,1.2-1.2V10.202
			C39.6,9.539,39.062,9.002,38.399,9.002z M6.6,47.4H5.7c-1.82,0-3.302-1.48-3.302-3.301V10.346C3.332,11.01,4.47,11.403,5.7,11.403
			H6.6V47.4z M37.2,47.4H9V11.402h28.2V47.4z M38.399,4.501H5.7c-0.663,0-1.2,0.537-1.2,1.2c0,0.662,0.537,1.199,1.2,1.199h32.698
			c0.663,0,1.2-0.537,1.2-1.199C39.599,5.038,39.062,4.501,38.399,4.501z M18.292,32.447l2.606,1.742
			c0.459,0.312,0.942,0.64,1.451,0.98c0.858,0.585,1.366,0.94,1.522,1.067c0.282,0.234,0.503,0.459,0.658,0.675
			c0.265,0.391,0.396,0.811,0.396,1.26c0,1.054-0.43,1.771-1.288,2.151c-0.46,0.205-1.07,0.309-1.832,0.309
			c-1.162,0-1.977-0.405-2.446-1.216c-0.264-0.449-0.435-1.152-0.513-2.109h-2.606c0.106,1.465,0.414,2.598,0.923,3.398
			c0.918,1.483,2.523,2.227,4.818,2.227c1.738,0,3.121-0.479,4.146-1.442c1.024-0.962,1.537-2.102,1.537-3.42
			c0-0.652-0.143-1.264-0.424-1.83c-0.284-0.565-0.686-1.089-1.201-1.566c0.956-0.684,1.635-1.272,2.035-1.771
			c0.702-0.868,1.055-1.883,1.055-3.044c0-2.049-1.641-3.991-4.922-5.825c-1.847-1.033-3.13-1.8-3.853-2.298
			c-0.361-0.254-0.633-0.55-0.812-0.888c-0.181-0.338-0.271-0.718-0.271-1.14c0-0.726,0.242-1.306,0.727-1.741
			c0.483-0.437,1.184-0.654,2.102-0.654c1.152,0,1.958,0.402,2.418,1.207c0.253,0.441,0.414,1.128,0.482,2.061h2.562
			c-0.028-1.3-0.277-2.354-0.747-3.164c-0.889-1.554-2.504-2.329-4.849-2.329c-1.592,0-2.873,0.484-3.845,1.457
			c-0.973,0.972-1.457,2.165-1.457,3.581c0,0.634,0.131,1.233,0.395,1.801c0.234,0.449,0.566,0.869,0.996,1.26
			c-0.938,0.575-1.694,1.241-2.27,1.998c-0.577,0.756-0.865,1.604-0.865,2.539c0,1.083,0.386,2.059,1.158,2.927
			C16.52,31.155,17.257,31.755,18.292,32.447z M18.269,25.276c0.275-0.293,0.703-0.596,1.283-0.907l4.269,2.604
			c0.989,0.605,1.646,1.073,1.971,1.405c0.52,0.537,0.777,1.186,0.777,1.945c0,0.851-0.247,1.562-0.74,2.139
			c-0.277,0.331-0.701,0.663-1.271,0.994l-5.511-3.541c-0.667-0.431-1.122-0.942-1.367-1.537c-0.127-0.322-0.191-0.692-0.191-1.112
			C17.486,26.486,17.747,25.822,18.269,25.276z"/>
	</g>
</g>
</svg>
