<?xml version="1.0" encoding="utf-8"?>
<!-- Generator: Adobe Illustrator 16.0.4, SVG Export Plug-In . SVG Version: 6.00 Build 0)  -->
<!DOCTYPE svg PUBLIC "-//W3C//DTD SVG 1.1//EN" "http://www.w3.org/Graphics/SVG/1.1/DTD/svg11.dtd">
<svg version="1.1" id="Warstwa_1" xmlns="http://www.w3.org/2000/svg" xmlns:xlink="http://www.w3.org/1999/xlink" x="0px" y="0px"
	 width="32.398px" height="50.398px" viewBox="0 0 32.398 50.398" enable-background="new 0 0 32.398 50.398" xml:space="preserve">
<g>
	<g>
		<path fill="#FFFFFF" d="M16.202,0C7.268,0,0,7.269,0,16.202c0,2.323,0.484,4.57,1.439,6.679c0.017,0.034,0.032,0.065,0.052,0.099
			c0.669,1.355,11.033,21.981,13.656,26.795c0.21,0.387,0.615,0.625,1.055,0.625c0.438,0,0.843-0.239,1.053-0.626
			c2.65-4.869,13.212-25.88,13.676-26.836l0.009-0.017c0.006-0.015,0.014-0.027,0.021-0.041c0.955-2.112,1.438-4.358,1.438-6.678
			C32.399,7.269,25.134,0,16.202,0z M28.782,21.869l-0.002,0.003c-0.003,0.005-0.005,0.01-0.008,0.016
			c-0.39,0.81-8.956,17.839-12.57,24.753c-3.634-6.943-12.217-24.02-12.576-24.758c-0.007-0.016-0.017-0.031-0.024-0.046
			C2.805,20.059,2.4,18.163,2.4,16.202c0-7.61,6.192-13.804,13.803-13.804C23.81,2.399,30,8.592,30,16.202
			C30,18.17,29.59,20.077,28.782,21.869z M16.211,9.009c-3.971,0-7.202,3.229-7.202,7.2s3.231,7.2,7.202,7.2
			c3.969,0,7.198-3.229,7.198-7.2S20.181,9.009,16.211,9.009z M16.211,21.009c-2.648,0-4.802-2.153-4.802-4.8
			c0-2.647,2.153-4.8,4.802-4.8c2.645,0,4.797,2.152,4.797,4.8C21.008,18.856,18.856,21.009,16.211,21.009z"/>
	</g>
</g>
</svg>
