<?xml version="1.0" encoding="utf-8"?>
<!-- Generator: Adobe Illustrator 16.0.4, SVG Export Plug-In . SVG Version: 6.00 Build 0)  -->
<!DOCTYPE svg PUBLIC "-//W3C//DTD SVG 1.1//EN" "http://www.w3.org/Graphics/SVG/1.1/DTD/svg11.dtd">
<svg version="1.1" id="Warstwa_1" xmlns="http://www.w3.org/2000/svg" xmlns:xlink="http://www.w3.org/1999/xlink" x="0px" y="0px"
	 width="44.4px" height="49.801px" viewBox="0 0 44.4 49.801" enable-background="new 0 0 44.4 49.801" xml:space="preserve">
<g>
	<g>
		<path fill="#FFFFFF" d="M43.142,2.34h-4.794V1.2c0-0.662-0.536-1.2-1.198-1.2H5.692C2.554,0,0,2.558,0,5.701V44.1
			c0,3.145,2.555,5.701,5.692,5.701h31.457c0.662,0,1.198-0.537,1.198-1.2v-1.731h4.794c0.694,0,1.259-0.564,1.259-1.262V3.601
			C44.4,2.904,43.837,2.34,43.142,2.34z M6.591,47.4H5.692c-1.817,0-3.296-1.48-3.296-3.301V5.701c0-1.82,1.479-3.302,3.296-3.302
			H6.59L6.591,47.4L6.591,47.4z M35.951,3.215c-0.039,0.122-0.061,0.252-0.061,0.386v42.007c0,0.136,0.021,0.265,0.061,0.387V47.4
			H8.988v-45h26.963V3.215z M41.883,44.346h-3.475v-5.879h3.475V44.346z M41.883,35.945h-3.475v-5.88h3.475V35.945z M41.883,27.544
			h-3.475v-5.88h3.475V27.544z M41.883,19.143h-3.475v-5.879h3.475V19.143z M41.883,10.741h-3.475v-5.88h3.475V10.741z M13.1,37.115
			h17.976c0.662,0,1.198-0.537,1.198-1.199v-6.151c0-4.487-2.396-6.63-4.407-7.637c-0.435-0.218-0.869-0.392-1.285-0.528
			c1.156-1.154,1.873-2.751,1.873-4.512c0-3.517-2.855-6.376-6.367-6.376c-3.511,0-6.365,2.859-6.365,6.376
			c0,1.761,0.716,3.356,1.872,4.512c-0.416,0.138-0.851,0.312-1.285,0.528c-2.011,1.007-4.407,3.148-4.407,7.637v6.151
			C11.901,36.577,12.438,37.115,13.1,37.115z M22.087,13.111c2.189,0,3.97,1.784,3.97,3.977c0,2.191-1.78,3.976-3.97,3.976
			c-2.188,0-3.97-1.783-3.97-3.976C18.118,14.896,19.898,13.111,22.087,13.111z M14.298,29.764c0-2.59,1.016-4.426,3.018-5.456
			c1.599-0.823,3.262-0.845,3.274-0.845h2.992c0.018,0,1.682,0.021,3.279,0.845c2.002,1.03,3.017,2.866,3.017,5.456v4.951h-15.58
			V29.764z"/>
	</g>
</g>
</svg>
