<?xml version="1.0" encoding="utf-8"?>
<!-- Generator: Adobe Illustrator 18.0.0, SVG Export Plug-In . SVG Version: 6.00 Build 0)  -->
<!DOCTYPE svg PUBLIC "-//W3C//DTD SVG 1.1//EN" "http://www.w3.org/Graphics/SVG/1.1/DTD/svg11.dtd">
<svg version="1.1" id="Layer_1" xmlns="http://www.w3.org/2000/svg" xmlns:xlink="http://www.w3.org/1999/xlink" x="0px" y="0px"
	 viewBox="0 0 76.8 58.2" enable-background="new 0 0 76.8 58.2" xml:space="preserve">
<path fill="#3A434E" d="M5.1,17h57c0.8,0,1.5-0.6,1.7-1.4c0.2-0.8-0.2-1.6-1-2L34.3,0.2c-0.5-0.2-1-0.2-1.5,0L4.3,13.7
	c-0.7,0.4-1.1,1.2-1,2C3.6,16.4,4.3,17,5.1,17z M33.6,3.7l20.7,9.8H12.9L33.6,3.7z M53.3,20.9h3.5v3.4c-1.2,0.4-2.4,0.9-3.5,1.5
	V20.9z M46.1,34.5c-0.4,1.1-0.7,2.3-0.8,3.5h-2.7V20.9h3.5V34.5z M51,52.9H1.8c-1,0-1.8-0.8-1.8-1.8s0.8-1.8,1.8-1.8h46.1
	C48.7,50.7,49.8,51.8,51,52.9z M10.3,38V20.9h3.5V38H10.3z M3.2,43.7c0-1,0.8-1.8,1.8-1.8h40.2c0.1,1.2,0.4,2.4,0.8,3.5H5
	C4,45.4,3.2,44.7,3.2,43.7z M21.1,38V20.9h3.5V38H21.1z M31.8,38V20.9h3.5V38H31.8z M60.7,34c0.4,0.9,0,1.9-0.9,2.3
	c-1.6,0.7-2.6,2.3-2.5,4c0,1-0.7,1.8-1.7,1.8c0,0-0.1,0-0.1,0c-0.9,0-1.7-0.7-1.7-1.7c-0.2-3.1,1.7-6.1,4.6-7.4
	C59.3,32.7,60.3,33.1,60.7,34z M76.4,55.3l-4.6-5.4c0.1-0.1,0.2-0.2,0.2-0.2c2.6-2.8,3.9-6.5,3.7-10.3c-0.4-7.8-7-13.9-14.9-13.5
	C53,26.3,46.9,33,47.3,40.8c0.4,7.6,6.6,13.5,14.2,13.5c0.2,0,0.5,0,0.7,0c2.5-0.1,4.9-0.9,6.9-2.2l4.6,5.4c0.3,0.4,0.8,0.6,1.3,0.6
	c0.4,0,0.8-0.1,1.1-0.4C77,57.1,77.1,56,76.4,55.3z M62.1,50.8c-5.9,0.3-11-4.3-11.2-10.2c-0.3-5.9,4.3-11,10.2-11.2
	c0.2,0,0.4,0,0.5,0c5.7,0,10.4,4.5,10.7,10.2c0.1,2.9-0.8,5.6-2.8,7.7C67.6,49.5,64.9,50.7,62.1,50.8z"/>
</svg>
