<?xml version="1.0" encoding="UTF-8" standalone="no"?>
<!-- Created with Inkscape (http://www.inkscape.org/) -->

<svg
   xmlns:dc="http://purl.org/dc/elements/1.1/"
   xmlns:cc="http://creativecommons.org/ns#"
   xmlns:rdf="http://www.w3.org/1999/02/22-rdf-syntax-ns#"
   xmlns:svg="http://www.w3.org/2000/svg"
   xmlns="http://www.w3.org/2000/svg"
   version="1.1"
   width="100%"
   height="100%"
   viewBox="0 0 76.8 58.2"
   id="Layer_1"
   xml:space="preserve"><metadata
   id="metadata3039"><rdf:RDF><cc:Work
       rdf:about=""><dc:format>image/svg+xml</dc:format><dc:type
         rdf:resource="http://purl.org/dc/dcmitype/StillImage" /><dc:title></dc:title></cc:Work></rdf:RDF></metadata><defs
   id="defs3037" />
<path
   d="m 12.755127,19.773373 h 43.908301 c 0.616257,0 1.155481,-0.462192 1.309545,-1.078449 0.154065,-0.616258 -0.154064,-1.232513 -0.77032,-1.540643 L 35.248502,6.8319792 c -0.385161,-0.1540642 -0.770321,-0.1540642 -1.155481,0 L 12.13887,17.231314 c -0.539225,0.308128 -0.847353,0.924385 -0.770321,1.540641 0.231096,0.539226 0.770321,1.001418 1.386578,1.001418 z M 34.709278,9.528103 50.654923,17.07725 H 18.763632 L 34.709278,9.528103 z m 15.175324,13.249523 h 2.696124 v 2.619091 c -0.924385,0.308128 -1.848771,0.693289 -2.696124,1.155481 v -3.774572 z m -5.546311,10.476366 c -0.308128,0.847353 -0.539225,1.771738 -0.616258,2.696123 H 41.642168 V 22.777626 h 2.696123 v 10.476366 z m 3.774574,14.173907 H 10.213068 c -0.7703214,0 -1.3865783,-0.616257 -1.3865783,-1.386578 0,-0.77032 0.6162569,-1.386577 1.3865783,-1.386577 h 35.511801 c 0.616257,1.078449 1.463609,1.925802 2.387996,2.773155 z M 16.760797,35.950115 V 22.777626 h 2.696123 v 13.172489 h -2.696123 z m -5.46928,4.390831 c 0,-0.770322 0.616257,-1.386578 1.386578,-1.386578 h 30.966907 c 0.07703,0.924385 0.308128,1.84877 0.616257,2.696124 H 12.678095 c -0.770321,0 -1.386578,-0.539226 -1.386578,-1.309546 z M 25.080264,35.950115 V 22.777626 h 2.696124 v 13.172489 h -2.696124 z m 8.242435,0 V 22.777626 h 2.696124 v 13.172489 h -2.696124 z m 22.26228,-3.081283 c 0.308127,0.693288 0,1.463609 -0.693289,1.771738 -1.232514,0.539225 -2.002835,1.771738 -1.925803,3.081284 0,0.770322 -0.539225,1.386577 -1.309546,1.386577 0,0 -0.07703,0 -0.07703,0 -0.693289,0 -1.309546,-0.539223 -1.309546,-1.309545 -0.154063,-2.387996 1.309546,-4.698958 3.543478,-5.700376 0.693288,-0.231097 1.463609,0.07703 1.771738,0.770322 z m 12.09404,16.407837 -3.543477,-4.159733 c 0.07703,-0.07703 0.154065,-0.154064 0.154065,-0.154064 2.002834,-2.156899 3.004251,-5.007087 2.850188,-7.934308 -0.30813,-6.008503 -5.392248,-10.707461 -11.477784,-10.399334 -6.008505,0.308129 -10.707463,5.46928 -10.399335,11.477785 0.308128,5.854439 5.084119,10.399334 10.938559,10.399334 0.154064,0 0.385161,0 0.539225,0 1.925803,-0.07703 3.774573,-0.693289 5.315215,-1.694707 l 3.543477,4.159734 c 0.231097,0.308128 0.616257,0.462193 1.001417,0.462193 0.308129,0 0.616257,-0.07703 0.847354,-0.308128 0.693288,-0.462193 0.77032,-1.309546 0.231096,-1.848772 z M 56.663428,45.810225 c -4.544894,0.231096 -8.473532,-3.312381 -8.627596,-7.857275 -0.231097,-4.544894 3.312381,-8.473531 7.857274,-8.627596 0.154065,0 0.308129,0 0.385161,0 4.390831,0 8.01134,3.466445 8.242435,7.857275 0.07703,2.233931 -0.616256,4.313798 -2.156898,5.931472 -1.46361,1.694707 -3.543477,2.619092 -5.700376,2.696124 z"
   id="path3033"
   style="fill:#ffffff" />
</svg>