<?xml version="1.0" encoding="utf-8"?>
<!-- Generator: Adobe Illustrator 18.0.0, SVG Export Plug-In . SVG Version: 6.00 Build 0)  -->
<!DOCTYPE svg PUBLIC "-//W3C//DTD SVG 1.1//EN" "http://www.w3.org/Graphics/SVG/1.1/DTD/svg11.dtd">
<svg version="1.1" id="Layer_1" xmlns="http://www.w3.org/2000/svg" xmlns:xlink="http://www.w3.org/1999/xlink" x="0px" y="0px"
	 viewBox="0 0 28.4 28.4" enable-background="new 0 0 28.4 28.4" xml:space="preserve">
<path d="M12.2,14.2c-0.1,0.2-0.1,0.5-0.1,0.7c0,0.5,0.2,1,0.6,1.4l0.6,0.6l0,0c0.4,0.4,0.9,0.5,1.3,0.5c0.5,0,1-0.2,1.4-0.6l0,0l0,0
	l3.8-3.8l0,0c0.4-0.4,0.5-0.9,0.5-1.3c0-0.5-0.2-1-0.6-1.4l0,0l-0.6-0.6c-0.4-0.4-0.9-0.6-1.4-0.6c-0.2,0-0.5,0-0.7,0.1L13,5.2
	c0.1-0.2,0.1-0.5,0.1-0.7c0-0.5-0.2-1-0.6-1.4l-0.6-0.6C11.6,2.2,11.1,2,10.6,2c-0.5,0-1,0.2-1.4,0.6L5.4,6.3l0,0
	C5,6.7,4.9,7.2,4.9,7.7c0,0.5,0.2,1,0.6,1.4l0.6,0.6l0,0c0.4,0.4,0.9,0.5,1.3,0.5c0.2,0,0.5,0,0.7-0.1l0.4,0.4l-6.7,6.7
	c-0.4,0.4-0.7,1-0.7,1.6c0,0.6,0.2,1.2,0.7,1.6c0.4,0.4,1,0.7,1.6,0.7c0.6,0,1.2-0.2,1.6-0.7l6.7-6.7L12.2,14.2L12.2,14.2z
	 M17.2,10.6L17.2,10.6c0.1-0.1,0.3-0.2,0.5-0.2c0.2,0,0.4,0.1,0.5,0.2l0.6,0.6l0,0c0.1,0.1,0.2,0.3,0.2,0.5c0,0.2-0.1,0.4-0.2,0.5
	l0,0l-3.8,3.8c-0.1,0.1-0.3,0.2-0.5,0.2c-0.2,0-0.4-0.1-0.5-0.2l0,0l-0.6-0.6c-0.1-0.1-0.2-0.3-0.2-0.5c0-0.2,0.1-0.4,0.2-0.5l0,0
	L17.2,10.6L17.2,10.6z M16.1,10L16.1,10l-3.2,3.2L9.1,9.4l3.2-3.2L16.1,10L16.1,10z M8,8.9L8,8.9L8,8.9C7.8,9,7.6,9.1,7.4,9.1
	C7.3,9.1,7.1,9,6.9,8.9l0,0L6.3,8.2C6.1,8.1,6,7.9,6,7.7c0-0.2,0.1-0.4,0.2-0.5l0,0L10,3.4c0.1-0.1,0.3-0.2,0.5-0.2
	c0.2,0,0.4,0.1,0.5,0.2L11.8,4l0,0C11.9,4.2,12,4.4,12,4.6c0,0.2-0.1,0.4-0.2,0.5L8,8.9L8,8.9z M4.2,19.7L4.2,19.7
	C4,19.9,3.7,20,3.4,20c-0.3,0-0.6-0.1-0.8-0.3h0h0c-0.2-0.2-0.3-0.5-0.3-0.8c0-0.3,0.1-0.6,0.3-0.8l6.7-6.7L11,13L4.2,19.7L4.2,19.7
	z M26.2,24.4L26.2,24.4H24v-1.1c0-0.3-0.1-0.5-0.3-0.7c-0.2-0.2-0.4-0.3-0.7-0.3h-0.5v-1.1c0-0.3-0.1-0.5-0.3-0.7
	c-0.2-0.2-0.4-0.3-0.7-0.3h-8.9c-0.3,0-0.5,0.1-0.7,0.3c-0.2,0.2-0.3,0.4-0.3,0.7v1.1h-0.5c-0.3,0-0.5,0.1-0.7,0.3l0,0
	c-0.2,0.2-0.3,0.4-0.3,0.7v1.1H7.8c-0.5,0-1,0.4-1,1c0,0.5,0.4,1,1,1h18.4c0.5,0,1-0.4,1-1C27.2,24.9,26.8,24.4,26.2,24.4L26.2,24.4
	z M22.8,24.4L22.8,24.4H11.2v-0.9h0.9c0.3,0,0.6-0.3,0.6-0.6v-1.5h8.7v1.5c0,0.3,0.3,0.6,0.6,0.6h0.9V24.4L22.8,24.4z"/>
</svg>
