<?xml version="1.0" encoding="utf-8"?>
<!-- Generator: Adobe Illustrator 18.0.0, SVG Export Plug-In . SVG Version: 6.00 Build 0)  -->
<!DOCTYPE svg PUBLIC "-//W3C//DTD SVG 1.1//EN" "http://www.w3.org/Graphics/SVG/1.1/DTD/svg11.dtd">
<svg version="1.1" id="Layer_1" xmlns="http://www.w3.org/2000/svg" xmlns:xlink="http://www.w3.org/1999/xlink" x="0px" y="0px"
	 viewBox="0 0 28.4 28.4" enable-background="new 0 0 28.4 28.4" xml:space="preserve">
<path d="M22.5,15.1c-0.6,0-1,0.5-1,1V25H6.9v-8.8c0-0.6-0.5-1-1-1c-0.6,0-1,0.5-1,1V26c0,0.6,0.5,1,1,1h16.6c0.6,0,1-0.4,1-1v-9.9
	C23.5,15.6,23,15.1,22.5,15.1L22.5,15.1z M27,15L27,15l-5.2-5.2V2c0-0.3-0.3-0.6-0.6-0.6h-3.6C17.2,1.4,17,1.6,17,2v3l-2.1-2.1
	c-0.4-0.4-1-0.4-1.4,0L1.4,15c-0.4,0.4-0.4,1,0,1.4c0.4,0.4,1,0.4,1.4,0L14.2,5l11.4,11.4c0.4,0.4,1,0.4,1.4,0
	C27.4,16,27.4,15.4,27,15L27,15z M20.6,8.6L20.6,8.6l-2.4-2.4V2.6h2.4V8.6L20.6,8.6z M18,22.2L18,22.2c0.3,0,0.6-0.3,0.6-0.6v-6.7
	c0-0.3-0.3-0.6-0.6-0.6h-7.6c-0.3,0-0.6,0.3-0.6,0.6v6.7c0,0.3,0.3,0.6,0.6,0.6H18L18,22.2z M11,15.5L11,15.5h6.4V21H11V15.5
	L11,15.5z"/>
</svg>
