<?xml version="1.0" encoding="utf-8"?>
<!-- Generator: Adobe Illustrator 18.0.0, SVG Export Plug-In . SVG Version: 6.00 Build 0)  -->
<!DOCTYPE svg PUBLIC "-//W3C//DTD SVG 1.1//EN" "http://www.w3.org/Graphics/SVG/1.1/DTD/svg11.dtd">
<svg version="1.1" id="Layer_1" xmlns="http://www.w3.org/2000/svg" xmlns:xlink="http://www.w3.org/1999/xlink" x="0px" y="0px"
	 viewBox="0 0 28.4 28.4" enable-background="new 0 0 28.4 28.4" xml:space="preserve">
<path d="M4.4,2.8L4.4,2.8h6.2c0.5,0,0.9,0.4,0.9,0.9v0v12.2l5.1-5.1c0.3-0.3,0.9-0.3,1.2,0c0.2,0.2,0.3,0.4,0.3,0.6v0v4.5l5.1-5.1
	c0.3-0.3,0.9-0.3,1.2,0c0.2,0.2,0.3,0.4,0.3,0.6v0v13.2c0,0.5-0.4,0.9-0.9,0.9h0H4.4c-0.5,0-0.9-0.4-0.9-0.9v0V3.7
	C3.6,3.2,4,2.8,4.4,2.8L4.4,2.8z M5.3,15.3L5.3,15.3h4.5v-2.9H5.3V15.3L5.3,15.3z M9.8,16.4L9.8,16.4H5.3v7.4H23V13.5l-5.1,5.1
	c-0.2,0.2-0.4,0.3-0.6,0.3c-0.5,0-0.9-0.4-0.9-0.9v-4.5l-5.1,5.1c-0.2,0.2-0.4,0.3-0.6,0.3c-0.5,0-0.9-0.4-0.9-0.9V16.4L9.8,16.4z
	 M9.8,4.6L9.8,4.6H5.3v2.9h4.5V4.6L9.8,4.6z M5.3,8.5L5.3,8.5v2.9h4.5V8.5H5.3L5.3,8.5z"/>
</svg>
