<?xml version="1.0" encoding="utf-8"?>
<!-- Generator: Adobe Illustrator 18.0.0, SVG Export Plug-In . SVG Version: 6.00 Build 0)  -->
<!DOCTYPE svg PUBLIC "-//W3C//DTD SVG 1.1//EN" "http://www.w3.org/Graphics/SVG/1.1/DTD/svg11.dtd">
<svg version="1.1" id="Layer_1" xmlns="http://www.w3.org/2000/svg" xmlns:xlink="http://www.w3.org/1999/xlink" x="0px" y="0px"
	 viewBox="0 0 28.4 28.4" enable-background="new 0 0 28.4 28.4" xml:space="preserve">
<g>
	<g>
		<path fill="#50453D" d="M19.7,1.8C19.7,1.8,19.7,1.8,19.7,1.8C23.2,1.9,25,6.5,25,9c0.1,2.7-2.4,5.2-5.3,5.3c0,0-0.1,0-0.1,0
			c-2.9-0.1-5.3-2.6-5.3-5.4C14.4,6.5,16.2,1.9,19.7,1.8C19.7,1.8,19.7,1.8,19.7,1.8L19.7,1.8z M19.7,12.3c1.8-0.1,3.4-1.7,3.3-3.3
			c0-1.8-1.4-5.1-3.3-5.2c-2,0.1-3.3,3.4-3.3,5.2C16.3,10.6,17.9,12.2,19.7,12.3L19.7,12.3z"/>
	</g>
	<g>
		<path fill="#50453D" d="M18.2,12.5C18.2,12.5,18.2,12.5,18.2,12.5c0.6,0,1,0.5,1,1l-0.3,10.3c0,0.1,0.1,0.2,0.1,0.2
			c0.2,0.2,0.4,0.3,0.7,0.3h0c0.3,0,0.6-0.1,0.7-0.3c0.1-0.1,0.1-0.1,0.1-0.2l-0.3-10.3c0-0.6,0.4-1,1-1c0.5-0.1,1,0.4,1,1l0.3,10.3
			c0,0.6-0.2,1.2-0.7,1.7c-0.5,0.6-1.3,0.9-2.2,0.9h0c-0.8,0-1.6-0.3-2.2-0.9c-0.5-0.5-0.7-1.1-0.7-1.7l0.3-10.3
			C17.2,12.9,17.7,12.5,18.2,12.5L18.2,12.5z"/>
	</g>
	<g>
		<path fill="#50453D" d="M6,12.5C6,12.5,6,12.5,6,12.5c0.6,0,1,0.5,1,1L6.7,23.8c0,0.1,0.1,0.2,0.1,0.2c0.2,0.2,0.4,0.3,0.7,0.3h0
			c0.3,0,0.6-0.1,0.7-0.3c0.1-0.1,0.1-0.1,0.1-0.2L8,13.5c0-0.6,0.4-1,1-1c0.6-0.1,1,0.4,1,1l0.3,10.3c0,0.6-0.2,1.2-0.7,1.7
			c-0.5,0.6-1.3,0.9-2.2,0.9h0c-0.8,0-1.6-0.3-2.2-0.9c-0.5-0.5-0.7-1.1-0.7-1.7L5,13.4C5,12.9,5.5,12.5,6,12.5L6,12.5z"/>
	</g>
	<g>
		<path fill="#50453D" d="M3.1,1.8c0.6,0,1,0.4,1,1l0,5.7c0,1.9,1.5,3.4,3.4,3.4c1.9,0,3.4-1.5,3.4-3.4l0-5.7c0-0.6,0.4-1,1-1
			c0.6,0,1,0.4,1,1l0,5.7c0,3-2.4,5.4-5.4,5.4c-3,0-5.4-2.4-5.4-5.4l0-5.7C2.1,2.2,2.6,1.8,3.1,1.8L3.1,1.8z"/>
	</g>
	<g>
		<path fill="#50453D" d="M9,1.8c0.6,0,1,0.4,1,1V7c0,0.6-0.4,1-1,1S8,7.5,8,7l0-4.2C8,2.3,8.4,1.8,9,1.8L9,1.8z"/>
	</g>
	<g>
		<path fill="#50453D" d="M6.1,1.8c0.6,0,1,0.4,1,1l0,4.2c0,0.6-0.4,1-1,1c-0.6,0-1-0.4-1-1l0-4.2C5.1,2.3,5.5,1.8,6.1,1.8L6.1,1.8z
			"/>
	</g>
</g>
</svg>
