<?xml version="1.0" encoding="utf-8"?>
<!-- Generator: Adobe Illustrator 18.0.0, SVG Export Plug-In . SVG Version: 6.00 Build 0)  -->
<!DOCTYPE svg PUBLIC "-//W3C//DTD SVG 1.1//EN" "http://www.w3.org/Graphics/SVG/1.1/DTD/svg11.dtd">
<svg version="1.1" id="Layer_1" xmlns="http://www.w3.org/2000/svg" xmlns:xlink="http://www.w3.org/1999/xlink" x="0px" y="0px"
	 viewBox="0 0 28.4 28.4" enable-background="new 0 0 28.4 28.4" xml:space="preserve">
<path fill="#3F3E3E" d="M4.4,3.5L4.4,3.5H24c0.5,0,0.8,0.4,0.8,0.8v0V24c0,0.5-0.4,0.8-0.8,0.8h0H4.4c-0.5,0-0.8-0.4-0.8-0.8v0V4.4
	C3.5,3.9,3.9,3.5,4.4,3.5L4.4,3.5z M14.7,5.2L14.7,5.2v8.5h8.5V5.2H14.7L14.7,5.2z M14.7,14.7L14.7,14.7v8.5h8.5v-8.5H14.7
	L14.7,14.7z M13.7,23.2L13.7,23.2v-8.5H5.2v8.5H13.7L13.7,23.2z M13.7,13.7L13.7,13.7V5.2H5.2v8.5H13.7L13.7,13.7z M10.4,17.2
	L10.4,17.2l-1.2,1.2l-1.2-1.2c-0.2-0.2-0.5-0.2-0.7,0c-0.2,0.2-0.2,0.5,0,0.7l1.2,1.2l-1.2,1.2c-0.2,0.2-0.2,0.5,0,0.7
	c0.2,0.2,0.5,0.2,0.7,0l1.2-1.2l1.2,1.2c0.2,0.2,0.5,0.2,0.7,0c0.2-0.2,0.2-0.5,0-0.7L10,19.1l1.2-1.2c0.2-0.2,0.2-0.5,0-0.7
	C10.9,17,10.6,17,10.4,17.2L10.4,17.2z M8.8,7.1L8.8,7.1v1.6H7.1C6.9,8.8,6.6,9,6.6,9.3c0,0.3,0.2,0.5,0.5,0.5h1.6v1.6
	c0,0.3,0.2,0.5,0.5,0.5c0.3,0,0.5-0.2,0.5-0.5V9.8h1.6c0.3,0,0.5-0.2,0.5-0.5c0-0.3-0.2-0.5-0.5-0.5H9.8V7.1c0-0.3-0.2-0.5-0.5-0.5
	C9,6.6,8.8,6.9,8.8,7.1L8.8,7.1z M21.2,19.6L21.2,19.6c-3.6,0-0.7,0-4.3,0c-0.3,0-0.5,0.2-0.5,0.5c0,0.3,0.2,0.5,0.5,0.5
	c3.6,0,0.7,0,4.3,0c0.3,0,0.5-0.2,0.5-0.5C21.7,19.8,21.5,19.6,21.2,19.6L21.2,19.6z M21.2,17.6L21.2,17.6c-3.6,0-0.7,0-4.3,0
	c-0.3,0-0.5,0.2-0.5,0.5s0.2,0.5,0.5,0.5c3.6,0,0.7,0,4.3,0c0.3,0,0.5-0.2,0.5-0.5S21.5,17.6,21.2,17.6L21.2,17.6z M21.2,8.8
	L21.2,8.8c-3.6,0-0.7,0-4.3,0c-0.3,0-0.5,0.2-0.5,0.5c0,0.3,0.2,0.5,0.5,0.5c3.6,0,0.7,0,4.3,0c0.3,0,0.5-0.2,0.5-0.5
	C21.7,9,21.5,8.8,21.2,8.8L21.2,8.8z"/>
</svg>
