<?xml version="1.0" encoding="utf-8"?>
<!-- Generator: Adobe Illustrator 18.0.0, SVG Export Plug-In . SVG Version: 6.00 Build 0)  -->
<!DOCTYPE svg PUBLIC "-//W3C//DTD SVG 1.1//EN" "http://www.w3.org/Graphics/SVG/1.1/DTD/svg11.dtd">
<svg version="1.1" id="Layer_1" xmlns="http://www.w3.org/2000/svg" xmlns:xlink="http://www.w3.org/1999/xlink" x="0px" y="0px"
	 viewBox="0 0 28.4 28.4" enable-background="new 0 0 28.4 28.4" xml:space="preserve">
<path d="M20.7,8.5c-0.4-0.4-0.4-1.1,0-1.5c0.4-0.4,1.1-0.4,1.5,0c0.3,0.3,0.5,0.6,0.8,0.9l0,0c0.2,0.3,0.5,0.6,0.7,1l0,0.1
	c0.2,0.3,0.4,0.6,0.6,1c0.2,0.3,0.4,0.7,0.5,1.1l0,0c0.2,0.4,0.3,0.8,0.4,1.2l0,0c0.1,0.4,0.2,0.8,0.3,1.1c0.1,0.6-0.2,1.1-0.8,1.2
	c-0.5,0.1-1.1-0.2-1.2-0.7L23.2,14c0.2,0.8,0.2,1.5,0.2,2.3c0,0.9,0.2,1.5,0.6,2c0.4,0.5,1.1,0.8,2.1,1c0.6,0.1,1.2,0.6,1.4,1.1
	l0,0.1c0.1,0.2,0.1,0.5,0.1,0.7l0,0h0c0,0.3-0.1,0.6-0.4,0.9c-0.3,0.4-0.9,0.7-1.7,0.7H2.3c-1.4,0-1.8-0.8-1.7-1.8
	c0.1-0.5,0.3-1.1,0.4-1.3l0-0.1c0.4-0.7,0.5-1.2,0.6-1.6c0.1-0.5,0.1-1,0.1-1.8c0-3,1.2-5.7,3.2-7.6c4.2-4.2,11.1-4.2,15.3,0
	c0.1,0.1,0.2,0.2,0.3,0.3l0.3-0.3L20.7,8.5L20.7,8.5z M21.4,9.9L21.4,9.9c0.6,0.9,1.1,1.8,1.5,2.9l0.4-0.1c-0.1-0.3-0.2-0.6-0.3-0.8
	v0c-0.1-0.3-0.3-0.6-0.4-0.9c-0.2-0.3-0.3-0.5-0.5-0.8l0-0.1c-0.1-0.1-0.2-0.3-0.3-0.4L21.4,9.9L21.4,9.9z M9.4,16.7L9.4,16.7
	c-0.6,0-1,0.5-1,1c0,0.6,0.5,1,1,1c0.6,0,1-0.5,1-1C10.4,17.2,10,16.7,9.4,16.7L9.4,16.7z M13.2,16.7L13.2,16.7c-0.6,0-1,0.5-1,1
	c0,0.6,0.5,1,1,1c0.6,0,1-0.5,1-1C14.2,17.2,13.8,16.7,13.2,16.7L13.2,16.7z M17,16.7L17,16.7c-0.6,0-1.1,0.5-1.1,1
	c0,0.6,0.5,1,1.1,1c0.6,0,1-0.5,1-1C18.1,17.2,17.6,16.7,17,16.7L17,16.7z M17.8,10.6L17.8,10.6c-0.7-0.7-1.5-1.3-2.4-1.6
	c-1.8-0.8-3.9-0.8-5.7,0c-0.9,0.4-1.7,0.9-2.4,1.6C5.9,12,5,13.8,5,15.9c0,0.3,0.3,0.6,0.6,0.6c0.4,0,0.6-0.3,0.6-0.6
	c0-1.7,0.7-3.3,1.8-4.4c0.6-0.6,1.3-1,2-1.4c1.5-0.6,3.2-0.6,4.8,0c0.8,0.3,1.5,0.8,2,1.4c0.2,0.2,0.6,0.2,0.9,0
	C18.1,11.2,18.1,10.8,17.8,10.6L17.8,10.6z M18.8,10.1L18.8,10.1c-3.4-3.4-8.9-3.4-12.3,0c-1.6,1.6-2.6,3.8-2.6,6.2
	c0,0.9,0,1.5-0.2,2.2c-0.1,0.7-0.4,1.3-0.8,2.2l0,0.1v0h21.2c-0.6-0.3-1.2-0.6-1.6-1.1c-0.8-0.8-1.1-1.9-1.1-3.4
	C21.4,13.9,20.4,11.7,18.8,10.1L18.8,10.1z"/>
</svg>
