<?xml version="1.0" encoding="utf-8"?>
<!-- Generator: Adobe Illustrator 18.0.0, SVG Export Plug-In . SVG Version: 6.00 Build 0)  -->
<!DOCTYPE svg PUBLIC "-//W3C//DTD SVG 1.1//EN" "http://www.w3.org/Graphics/SVG/1.1/DTD/svg11.dtd">
<svg version="1.1" id="Layer_1" xmlns="http://www.w3.org/2000/svg" xmlns:xlink="http://www.w3.org/1999/xlink" x="0px" y="0px"
	 viewBox="0 0 28.4 28.4" enable-background="new 0 0 28.4 28.4" xml:space="preserve">
<g>
	<g>
		<path fill="#50453D" d="M23,19.2H9.6c-0.5,0-0.8-0.3-1-0.7L6.1,9.1C6,8.8,6.1,8.5,6.3,8.3C6.4,8,6.7,7.9,7,7.9h18.6
			c0.3,0,0.6,0.1,0.8,0.4c0.2,0.2,0.3,0.6,0.2,0.9L24,18.4C23.9,18.9,23.5,19.2,23,19.2L23,19.2z M10.4,17.2h11.9l2-7.3H8.4
			L10.4,17.2L10.4,17.2z"/>
	</g>
	<g>
		<path fill="#50453D" d="M9.6,19.2c-0.4,0-0.8-0.3-1-0.7L5.3,6.2L2.2,6.1c-0.6,0-1-0.5-1-1c0-0.5,0.5-1,1-1l3.8,0.2
			C6.6,4.3,6.9,4.6,7,5l3.5,12.9c0.1,0.5-0.2,1.1-0.7,1.2C9.8,19.1,9.7,19.2,9.6,19.2L9.6,19.2z"/>
	</g>
	<g>
		<path fill="#50453D" d="M12,25.1c-1.5,0-2.8-1.2-2.8-2.8c0-1.5,1.2-2.8,2.8-2.8s2.8,1.2,2.8,2.8C14.7,23.9,13.5,25.1,12,25.1
			L12,25.1z M12,21.6c-0.4,0-0.8,0.3-0.8,0.8c0,0.4,0.3,0.8,0.8,0.8c0.4,0,0.8-0.3,0.8-0.8C12.7,21.9,12.4,21.6,12,21.6L12,21.6z"/>
	</g>
	<g>
		<path fill="#50453D" d="M20.3,25.1c-1.5,0-2.8-1.2-2.8-2.8c0-1.5,1.2-2.8,2.8-2.8s2.8,1.2,2.8,2.8C23.1,23.9,21.8,25.1,20.3,25.1
			L20.3,25.1z M20.3,21.6c-0.4,0-0.8,0.3-0.8,0.8c0,0.4,0.3,0.8,0.8,0.8c0.4,0,0.8-0.3,0.8-0.8C21.1,21.9,20.7,21.6,20.3,21.6
			L20.3,21.6z"/>
	</g>
</g>
</svg>
