<?xml version="1.0" encoding="utf-8"?>
<!-- Generator: Adobe Illustrator 18.0.0, SVG Export Plug-In . SVG Version: 6.00 Build 0)  -->
<!DOCTYPE svg PUBLIC "-//W3C//DTD SVG 1.1//EN" "http://www.w3.org/Graphics/SVG/1.1/DTD/svg11.dtd">
<svg version="1.1" id="Layer_1" xmlns="http://www.w3.org/2000/svg" xmlns:xlink="http://www.w3.org/1999/xlink" x="0px" y="0px"
	 viewBox="0 0 28.4 28.4" enable-background="new 0 0 28.4 28.4" xml:space="preserve">
<g>
	<g>
		<path fill="#50453D" d="M10.6,24.7C10.6,24.7,10.6,24.7,10.6,24.7c-2,0-4.1-0.5-5.9-1.3c-0.2-0.1-0.4-0.3-0.5-0.5
			C1.8,17.6,2.9,11.4,7,7.3c2.6-2.6,6.1-4,9.8-4c2,0,4.1,0.5,5.9,1.3C22.8,4.6,23,4.8,23.1,5c2.5,5.3,1.4,11.5-2.7,15.6
			C17.8,23.3,14.3,24.7,10.6,24.7L10.6,24.7z M5.9,21.7c1.5,0.6,3.1,1,4.7,1c0,0,0,0,0,0c3.2,0,6.1-1.2,8.3-3.5
			c3.4-3.4,4.4-8.6,2.5-13.1c-1.5-0.6-3.1-1-4.7-1c-3.2,0-6.1,1.2-8.3,3.5C5,12.1,4,17.3,5.9,21.7L5.9,21.7z"/>
	</g>
	<g>
		<path fill="#50453D" d="M5.7,22.5c-0.1,0-0.3,0-0.4-0.1c-0.2-0.2-0.2-0.5,0-0.7L21.9,5.1c0.2-0.2,0.5-0.2,0.7,0
			c0.2,0.2,0.2,0.5,0,0.7L6,22.3C5.9,22.4,5.8,22.5,5.7,22.5L5.7,22.5z"/>
	</g>
	<g>
		<path fill="#50453D" d="M3.3,25.4c-0.3,0-0.5-0.1-0.7-0.3c-0.4-0.4-0.4-1,0-1.4l1.8-1.8c0.4-0.4,1-0.4,1.4,0c0.4,0.4,0.4,1,0,1.4
			L4,25.1C3.8,25.3,3.5,25.4,3.3,25.4L3.3,25.4z"/>
	</g>
	<g>
		<g>
			<path fill="#50453D" d="M22.3,14.3C22.3,14.3,22.3,14.3,22.3,14.3L14.6,14c-0.3,0-0.5-0.2-0.5-0.5c0-0.3,0.2-0.5,0.5-0.5l7.8,0.4
				c0.3,0,0.5,0.2,0.5,0.5C22.8,14.1,22.6,14.3,22.3,14.3L22.3,14.3z"/>
		</g>
		<g>
			<path fill="#50453D" d="M19.6,19.2C19.6,19.2,19.6,19.2,19.6,19.2l-9.9-0.4c-0.3,0-0.5-0.2-0.5-0.5s0.2-0.5,0.5-0.5l9.8,0.4
				c0.3,0,0.5,0.2,0.5,0.5C20.1,19,19.8,19.2,19.6,19.2L19.6,19.2z"/>
		</g>
		<g>
			<path fill="#50453D" d="M14.1,13.6c-0.3,0-0.5-0.2-0.5-0.5l-0.4-7.8c0-0.3,0.2-0.5,0.5-0.5c0,0,0,0,0,0c0.3,0,0.5,0.2,0.5,0.5
				l0.4,7.8C14.7,13.3,14.4,13.5,14.1,13.6C14.2,13.6,14.1,13.6,14.1,13.6L14.1,13.6z"/>
		</g>
		<g>
			<path fill="#50453D" d="M9.4,18.4c-0.3,0-0.5-0.2-0.5-0.5L8.4,8.1c0-0.3,0.2-0.5,0.5-0.5c0,0,0,0,0,0c0.3,0,0.5,0.2,0.5,0.5
				l0.4,9.8C9.9,18.2,9.7,18.4,9.4,18.4C9.4,18.4,9.4,18.4,9.4,18.4L9.4,18.4z"/>
		</g>
	</g>
</g>
</svg>
