<?xml version="1.0" encoding="utf-8"?>
<!-- Generator: Adobe Illustrator 18.0.0, SVG Export Plug-In . SVG Version: 6.00 Build 0)  -->
<!DOCTYPE svg PUBLIC "-//W3C//DTD SVG 1.1//EN" "http://www.w3.org/Graphics/SVG/1.1/DTD/svg11.dtd">
<svg version="1.1" id="Layer_1" xmlns="http://www.w3.org/2000/svg" xmlns:xlink="http://www.w3.org/1999/xlink" x="0px" y="0px"
	 viewBox="0 0 28.4 28.4" enable-background="new 0 0 28.4 28.4" xml:space="preserve">
<g>
	<path fill="#50453D" d="M24.7,6.7v8.6H13.8V6.7H24.7 M26.7,4.6h-15v12.8h15V4.6L26.7,4.6z"/>
	<g>
		<path fill="#50453D" d="M18.2,20.7h-5.7c-0.6,0-1-0.5-1-1c0-0.6,0.5-1,1-1h5.7c0.6,0,1,0.5,1,1C19.3,20.2,18.8,20.7,18.2,20.7
			L18.2,20.7z"/>
	</g>
	<path fill="#50453D" d="M22.7,20.2c0.5,0,0.9,0.4,0.9,0.9c0,0.5-0.4,0.9-0.9,0.9c-0.5,0-0.9-0.4-0.9-0.9
		C21.8,20.6,22.2,20.2,22.7,20.2 M22.7,18.4c-1.5,0-2.6,1.2-2.6,2.6c0,1.5,1.2,2.6,2.6,2.6c1.5,0,2.6-1.2,2.6-2.6
		C25.3,19.6,24.1,18.4,22.7,18.4L22.7,18.4z"/>
	<path fill="#50453D" d="M8.2,10.8v4.5c-1.8,0-3.5,0.9-4.5,2.2v-2.4l2.2-4.3H8.2 M10.3,8.7H4.6l-3,5.9v6.1h2.9
		c0.2-1.9,1.8-3.4,3.7-3.4c0.8,0,1.5,0.2,2.1,0.6V8.7L10.3,8.7z"/>
	<path fill="#50453D" d="M8.3,20.2c0.5,0,0.9,0.4,0.9,0.9c0,0.5-0.4,0.9-0.9,0.9c-0.5,0-0.9-0.4-0.9-0.9C7.4,20.6,7.8,20.2,8.3,20.2
		 M8.3,18.4c-1.5,0-2.6,1.2-2.6,2.6c0,1.5,1.2,2.6,2.6,2.6c1.5,0,2.6-1.2,2.6-2.6C10.9,19.6,9.7,18.4,8.3,18.4L8.3,18.4z"/>
</g>
</svg>
