<?xml version="1.0" encoding="utf-8"?>
<!-- Generator: Adobe Illustrator 18.0.0, SVG Export Plug-In . SVG Version: 6.00 Build 0)  -->
<!DOCTYPE svg PUBLIC "-//W3C//DTD SVG 1.1//EN" "http://www.w3.org/Graphics/SVG/1.1/DTD/svg11.dtd">
<svg version="1.1" id="Layer_1" xmlns="http://www.w3.org/2000/svg" xmlns:xlink="http://www.w3.org/1999/xlink" x="0px" y="0px"
	 viewBox="0 0 28.4 28.4" enable-background="new 0 0 28.4 28.4" xml:space="preserve">
<g>
	<g>
		<path fill="#50453D" d="M9.5,13.5c-2.6,0-4.8-2.4-4.8-5.3c0-2.9,2.1-5.3,4.8-5.3c2.6,0,4.8,2.4,4.8,5.3
			C14.3,11.1,12.1,13.5,9.5,13.5L9.5,13.5z M9.5,5C8.1,5,6.9,6.4,6.9,8.2c0,1.7,1.2,3.1,2.6,3.1s2.6-1.4,2.6-3.1
			C12.1,6.4,10.9,5,9.5,5L9.5,5z"/>
	</g>
	<g>
		<path fill="#50453D" d="M16.5,25.6H2.4c-0.6,0-1.1-0.4-1.1-1L0.9,20c-0.1-1.8,1.2-3.7,2.9-4.4c3.6-1.3,7.5-1.3,11.1,0
			c1.8,0.6,3.1,2.6,2.9,4.4l-0.3,4.6C17.6,25.1,17.1,25.6,16.5,25.6L16.5,25.6z M3.4,23.4h12.1l0.2-3.5c0-0.7-0.6-1.8-1.5-2.2
			c-3.1-1.1-6.5-1.1-9.6,0c-0.9,0.3-1.5,1.4-1.5,2.1L3.4,23.4L3.4,23.4z"/>
	</g>
	<g>
		<path fill="#50453D" d="M16.5,25.6H2.4c-0.6,0-1.1-0.4-1.1-1L0.9,20c-0.1-1.8,1.2-3.7,2.9-4.4c3.6-1.3,7.5-1.3,11.1,0
			c1.8,0.6,3.1,2.6,2.9,4.4l-0.3,4.6C17.6,25.1,17.1,25.6,16.5,25.6L16.5,25.6z M3.4,23.4h12.1l0.2-3.5c0-0.7-0.6-1.8-1.5-2.2
			c-3.1-1.1-6.5-1.1-9.6,0c-0.9,0.3-1.5,1.4-1.5,2.1L3.4,23.4L3.4,23.4z"/>
	</g>
	<g>
		<path fill="#50453D" d="M25.1,25.6h-5.6c-0.6,0-1.1-0.5-1.1-1.1c0-0.6,0.5-1.1,1.1-1.1H24l0.2-2.9c0-0.6-0.5-1.5-1.2-1.7
			c-1.2-0.4-2.5-0.7-3.9-0.7c-0.6,0-1.1-0.5-1.1-1.1c0-0.6,0.5-1.1,1.1-1.1c1.6,0,3.1,0.3,4.6,0.8c1.6,0.6,2.8,2.3,2.6,3.9l-0.3,3.9
			C26.1,25.1,25.6,25.6,25.1,25.6L25.1,25.6z"/>
	</g>
	<g>
		<path fill="#50453D" d="M20.7,14.7c-2.2,0-4-2-4-4.4s1.8-4.4,4-4.4c2.2,0,4,2,4,4.4S22.9,14.7,20.7,14.7L20.7,14.7z M20.7,8.1
			c-1,0-1.8,1-1.8,2.2c0,1.2,0.8,2.2,1.8,2.2c1,0,1.8-1,1.8-2.2C22.5,9,21.7,8.1,20.7,8.1L20.7,8.1z"/>
	</g>
</g>
</svg>
