<?xml version="1.0" encoding="utf-8"?>
<!-- Generator: Adobe Illustrator 18.0.0, SVG Export Plug-In . SVG Version: 6.00 Build 0)  -->
<!DOCTYPE svg PUBLIC "-//W3C//DTD SVG 1.1//EN" "http://www.w3.org/Graphics/SVG/1.1/DTD/svg11.dtd">
<svg version="1.1" id="Layer_1" xmlns="http://www.w3.org/2000/svg" xmlns:xlink="http://www.w3.org/1999/xlink" x="0px" y="0px"
	 viewBox="0 0 28.4 28.4" enable-background="new 0 0 28.4 28.4" xml:space="preserve">
<path d="M23.3,24.7h-1.5V11.4c0.8-0.2,1.5-0.7,2.1-1.3l0,0l0,0c0.9-0.9,1.5-2.1,1.5-3.4c0-1.3-0.5-2.5-1.4-3.4l-0.1-0.1
	c-0.9-0.9-2.1-1.4-3.5-1.4H7.9c-1.3,0-2.6,0.5-3.5,1.4C3.5,4.1,3,5.4,3,6.7c0,1.4,0.5,2.6,1.4,3.5c0.6,0.6,1.3,1,2.2,1.3v13.3H5.1
	c-0.5,0-0.9,0.4-0.9,0.9c0,0.5,0.4,0.9,0.9,0.9h18.2c0.5,0,0.9-0.4,0.9-0.9C24.2,25.1,23.8,24.7,23.3,24.7L23.3,24.7z M20,24.7
	L20,24.7H8.4V11.6c0.7-0.1,1.4-0.3,1.9-0.6c0.6-0.3,1.1-0.8,1.5-1.3h4.7c0.4,0.5,0.8,1,1.3,1.3c0.6,0.4,1.3,0.6,2.2,0.7V24.7
	L20,24.7z M18.8,9.4L18.8,9.4c-0.4-0.3-0.7-0.7-1-1.1C17.6,8,17.3,7.8,17,7.8v0h-5.7c-0.4,0-0.7,0.2-0.8,0.5
	c-0.3,0.4-0.7,0.8-1.1,1.1C9,9.7,8.4,9.8,7.9,9.8C7,9.8,6.2,9.5,5.7,8.9C5.1,8.3,4.8,7.6,4.8,6.7c0-0.9,0.3-1.6,0.9-2.2
	C6.2,4,7,3.6,7.9,3.6h12.6c0.9,0,1.6,0.3,2.2,0.9l0,0c0.5,0.5,0.9,1.3,0.9,2.1c0,0.8-0.4,1.5-0.9,2.1c-0.6,0.6-1.4,1-2.2,1
	C19.7,9.8,19.2,9.7,18.8,9.4L18.8,9.4z M14.2,12.6L14.2,12.6c-0.3,0-0.5,0.2-0.5,0.5v9.4c0,0.3,0.2,0.5,0.5,0.5s0.5-0.2,0.5-0.5
	v-9.4C14.7,12.8,14.5,12.6,14.2,12.6L14.2,12.6z M22.3,4.9L22.3,4.9c-0.5-0.5-1.1-0.7-1.8-0.7H7.9c-0.7,0-1.3,0.3-1.8,0.7
	C5.6,5.4,5.4,6,5.4,6.7c0,0.7,0.3,1.3,0.7,1.8v0c0.5,0.5,1.1,0.7,1.8,0.7c0.7,0,1.3-0.3,1.8-0.7v0c0.5-0.5,0.7-1.1,0.7-1.8
	c0-0.5-0.2-1-0.5-1.4h8.5c-0.3,0.4-0.5,0.9-0.5,1.4c0,0.7,0.3,1.3,0.7,1.8c0.5,0.5,1.1,0.7,1.8,0.7c0.7,0,1.3-0.3,1.8-0.7
	C22.7,8,23,7.4,23,6.7C23,6,22.7,5.4,22.3,4.9L22.3,4.9z M8.9,7.7L8.9,7.7L8.9,7.7C8.6,8,8.3,8.2,7.9,8.2c-0.4,0-0.8-0.2-1-0.4
	c-0.3-0.3-0.4-0.6-0.4-1c0-0.4,0.2-0.8,0.4-1c0.6-0.6,1.5-0.6,2.1,0c0.3,0.3,0.4,0.6,0.4,1C9.3,7.1,9.2,7.5,8.9,7.7L8.9,7.7z
	 M21.5,7.7L21.5,7.7c-0.3,0.3-0.6,0.4-1,0.4c-0.4,0-0.8-0.2-1-0.4c-0.3-0.3-0.4-0.6-0.4-1c0-0.4,0.2-0.8,0.4-1
	c0.6-0.6,1.5-0.6,2.1,0c0.3,0.3,0.4,0.6,0.4,1C21.9,7.1,21.8,7.5,21.5,7.7L21.5,7.7z M11.3,12.6L11.3,12.6c-0.3,0-0.5,0.2-0.5,0.5
	v9.4c0,0.3,0.2,0.5,0.5,0.5s0.5-0.2,0.5-0.5v-9.4C11.9,12.8,11.6,12.6,11.3,12.6L11.3,12.6z M17,12.6L17,12.6
	c-0.3,0-0.5,0.2-0.5,0.5v9.4c0,0.3,0.2,0.5,0.5,0.5c0.3,0,0.5-0.2,0.5-0.5v-9.4C17.6,12.8,17.3,12.6,17,12.6L17,12.6z"/>
</svg>
