<?xml version="1.0" encoding="utf-8"?>
<!-- Generator: Adobe Illustrator 18.0.0, SVG Export Plug-In . SVG Version: 6.00 Build 0)  -->
<!DOCTYPE svg PUBLIC "-//W3C//DTD SVG 1.1//EN" "http://www.w3.org/Graphics/SVG/1.1/DTD/svg11.dtd">
<svg version="1.1" id="Layer_1" xmlns="http://www.w3.org/2000/svg" xmlns:xlink="http://www.w3.org/1999/xlink" x="0px" y="0px"
	 viewBox="0 0 28.4 28.4" enable-background="new 0 0 28.4 28.4" xml:space="preserve">
<path d="M25.9,11c-0.8-3-2.7-5.7-5.6-7.3l0,0C14.5,0.3,7,2.3,3.7,8.1l0,0c-1.7,2.9-2,6.2-1.2,9.2c0.8,3,2.7,5.7,5.6,7.3l0,0
	c2.9,1.7,6.2,2,9.2,1.2c3-0.8,5.7-2.7,7.4-5.6l0,0C26.4,17.3,26.7,14,25.9,11L25.9,11z M19.4,5.3L19.4,5.3c1.7,1,3,2.4,3.9,4.1
	l-1.5,0.1L19,6.4L19.4,5.3L19.4,5.3z M8,13.3L8,13.3l4-0.8l3.2,3.8l-1.3,3.5c-0.7,0.3-1.3,0.5-2,0.7c-0.7,0.1-1.4,0.2-2,0.2
	c-0.7-0.4-1.3-0.9-1.8-1.4c-0.5-0.5-0.9-1.1-1.3-1.8c0.2-0.8,0.3-1.5,0.5-2.2C7.4,14.7,7.7,14,8,13.3L8,13.3z M6.8,9.2L6.8,9.2
	c0.5-0.6,1.8-2,3.3-2.6l2.5,0.8l-1,4L8,12.2L6.8,9.2L6.8,9.2z M12.8,11.8L12.8,11.8C12.8,11.7,12.7,11.7,12.8,11.8l0.9-4.2l4.4-0.5
	l3,3.3l-1.2,4.2l-3.9,1L12.8,11.8L12.8,11.8z M18.4,4.8L18.4,4.8L17.9,6l-4.6,0.5l-3-1L10,4.8C12.6,3.6,15.7,3.6,18.4,4.8L18.4,4.8z
	 M9,5.3L9,5.3l0.2,0.5C7.7,6.6,6.4,8,5.9,8.5L5.6,8.5C6.5,7.1,7.7,6.1,9,5.3L9,5.3z M4.2,16.8L4.2,16.8c-0.6-2.4-0.4-5,0.8-7.3
	l0.7,0.1L7,12.8c-0.3,0.7-0.6,1.5-0.8,2.2c-0.2,0.7-0.4,1.4-0.5,2.1l-1.2,0.2C4.4,17.2,4.3,17,4.2,16.8L4.2,16.8z M8.6,22.8
	L8.6,22.8c-1.7-1.1-2.9-2.6-3.7-4.3l1-0.2c0.4,0.7,0.9,1.3,1.4,1.8c0.5,0.5,1.1,1,1.8,1.4L8.6,22.8L8.6,22.8z M17.2,24L17.2,24
	c-0.1,0-0.3,0.1-0.4,0.1c-2.4,0.6-4.9,0.4-7.3-0.7l0.4-1.5c0.7,0,1.3-0.1,2-0.3c0.7-0.2,1.4-0.4,2.2-0.7l3.2,1.7L17.2,24L17.2,24z
	 M14.9,20L14.9,20l1.3-3.3l3.8-1l1.2,3.3c-0.4,0.5-0.8,1-1.3,1.4c-0.6,0.5-1.2,0.9-1.8,1.2L14.9,20L14.9,20z M23,19.4L23,19.4
	c-1.1,1.9-2.8,3.3-4.6,4.2l0.1-0.9c0.7-0.4,1.4-0.8,2-1.4c0.6-0.5,1.1-1.1,1.6-1.7L23,19.4C23.1,19.3,23.1,19.3,23,19.4L23,19.4z
	 M23.7,17.9L23.7,17.9l-1.7,0.5L20.9,15l1.3-4.4l1.6-0.1c0.1,0.3,0.2,0.7,0.3,1C24.7,13.6,24.6,15.8,23.7,17.9L23.7,17.9z"/>
</svg>
