<?xml version="1.0" encoding="utf-8"?>
<!-- Generator: Adobe Illustrator 18.0.0, SVG Export Plug-In . SVG Version: 6.00 Build 0)  -->
<!DOCTYPE svg PUBLIC "-//W3C//DTD SVG 1.1//EN" "http://www.w3.org/Graphics/SVG/1.1/DTD/svg11.dtd">
<svg version="1.1" id="Layer_1" xmlns="http://www.w3.org/2000/svg" xmlns:xlink="http://www.w3.org/1999/xlink" x="0px" y="0px"
	 viewBox="0 0 28.4 28.4" enable-background="new 0 0 28.4 28.4" xml:space="preserve">
<g>
	<g>
		<path fill="#50453D" d="M23.9,20H4.2c-0.5,0-0.9-0.4-0.9-0.9V6.6c0-0.5,0.4-0.9,0.9-0.9h19.7c0.5,0,0.9,0.4,0.9,0.9v12.5
			C24.7,19.6,24.3,20,23.9,20L23.9,20z M5.1,18.2H23V7.5H5.1V18.2L5.1,18.2z"/>
	</g>
	<g>
		<path fill="#50453D" d="M22.1,17.8H6c-0.2,0-0.4-0.2-0.4-0.4V8.4C5.5,8.2,5.7,8,6,8h16.1c0.2,0,0.4,0.2,0.4,0.4v8.9
			C22.5,17.6,22.3,17.8,22.1,17.8L22.1,17.8z M6.4,16.9h15.2v-8H6.4V16.9L6.4,16.9z"/>
	</g>
	<g>
		<path fill="#50453D" d="M26.6,22.6H1.7c-0.5,0-0.9-0.4-0.9-0.9c0-0.5,0.4-0.9,0.9-0.9h24.9c0.5,0,0.9,0.4,0.9,0.9
			C27.5,22.2,27.1,22.6,26.6,22.6L26.6,22.6z"/>
	</g>
</g>
</svg>
