<?xml version="1.0" encoding="utf-8"?>
<!-- Generator: Adobe Illustrator 18.0.0, SVG Export Plug-In . SVG Version: 6.00 Build 0)  -->
<!DOCTYPE svg PUBLIC "-//W3C//DTD SVG 1.1//EN" "http://www.w3.org/Graphics/SVG/1.1/DTD/svg11.dtd">
<svg version="1.1" id="Layer_1" xmlns="http://www.w3.org/2000/svg" xmlns:xlink="http://www.w3.org/1999/xlink" x="0px" y="0px"
	 viewBox="0 0 28.4 28.4" enable-background="new 0 0 28.4 28.4" xml:space="preserve">
<g>
	<g>
		<g>
			<path fill="#50453D" d="M12.5,16.3c-0.7,0-1.4-0.4-1.8-1.1L6.5,6.3c-0.2-0.5-0.2-1-0.1-1.5C6.6,4.3,7,4,7.4,3.7L10,2.5
				c0.9-0.4,2.1,0,2.6,0.9l4.2,8.9c0.2,0.5,0.2,1,0.1,1.5c-0.2,0.5-0.5,0.9-1,1.1l-2.5,1.2C13.1,16.3,12.8,16.3,12.5,16.3L12.5,16.3
				z M10.7,4.3L8.3,5.5l4.2,8.8l2.5-1.2L10.7,4.3L10.7,4.3z"/>
		</g>
		<g>
			<path fill="#50453D" d="M7.5,4.1c-0.4,0-0.7-0.2-0.9-0.6C6.4,3,6.6,2.4,7.1,2.1l1.8-0.9c0.5-0.2,1.1,0,1.3,0.5
				c0.2,0.5,0,1.1-0.5,1.3L8,4C7.8,4,7.7,4.1,7.5,4.1L7.5,4.1z"/>
		</g>
		<g>
			<path fill="#50453D" d="M13,17.6c-0.4,0-0.7-0.2-0.9-0.6c-0.2-0.5,0-1.1,0.5-1.3L16,14c0.5-0.2,1.1,0,1.3,0.5
				c0.2,0.5,0,1.1-0.5,1.3l-3.4,1.6C13.3,17.5,13.2,17.6,13,17.6L13,17.6z"/>
		</g>
	</g>
	<g>
		<path fill="#50453D" d="M14.4,25.9c-5.8,0-10.5-4.7-10.5-10.5c0-3,1.3-5.9,3.6-7.9L8.7,9c-1.8,1.6-2.9,4-2.9,6.4
			c0,4.7,3.8,8.5,8.5,8.5c2.8,0,5.5-1.4,7.1-3.8l1.7,1.1C21.1,24.2,17.9,25.9,14.4,25.9L14.4,25.9z M14.4,23.2
			c-4.3,0-7.9-3.5-7.9-7.9c0-2.1,0.8-4.1,2.3-5.6l1.4,1.4c-1.1,1.1-1.7,2.6-1.7,4.2c0,3.2,2.6,5.9,5.9,5.9c1.2,0,2.3-0.3,3.3-1
			c0.2-0.1,0.3-0.2,0.5-0.4l1.3,1.5c-0.2,0.2-0.4,0.4-0.7,0.5C17.5,22.8,15.9,23.2,14.4,23.2L14.4,23.2z"/>
	</g>
	<g>
		<path fill="#50453D" d="M22.7,21.7h-8c-0.6,0-1-0.4-1-1c0-0.6,0.4-1,1-1h8c0.6,0,1,0.4,1,1C23.7,21.2,23.2,21.7,22.7,21.7
			L22.7,21.7z"/>
	</g>
	<g>
		<path fill="#50453D" d="M18.4,27.5h-8c-0.6,0-1-0.4-1-1s0.4-1,1-1h8c0.6,0,1,0.4,1,1S18.9,27.5,18.4,27.5L18.4,27.5z"/>
	</g>
	<g>
		<path fill="#50453D" d="M17.1,27.5h-8c-0.6,0-1-0.4-1-1s0.4-1,1-1h8c0.6,0,1,0.4,1,1S17.7,27.5,17.1,27.5L17.1,27.5z"/>
	</g>
</g>
</svg>
