<?xml version="1.0" encoding="utf-8"?>
<!-- Generator: Adobe Illustrator 18.0.0, SVG Export Plug-In . SVG Version: 6.00 Build 0)  -->
<!DOCTYPE svg PUBLIC "-//W3C//DTD SVG 1.1//EN" "http://www.w3.org/Graphics/SVG/1.1/DTD/svg11.dtd">
<svg version="1.1" id="Layer_1" xmlns="http://www.w3.org/2000/svg" xmlns:xlink="http://www.w3.org/1999/xlink" x="0px" y="0px"
	 viewBox="0 0 28.4 28.4" enable-background="new 0 0 28.4 28.4" xml:space="preserve">
<g>
	<g>
		<path fill="#50453D" d="M23.9,25H4.4c-1.2,0-2.1-0.9-2.1-2.1V9.3c0-1.2,0.9-2.1,2.1-2.1h19.5c1.2,0,2.1,0.9,2.1,2.1v13.6
			C26,24.1,25.1,25,23.9,25L23.9,25z M4.4,9.2c-0.1,0-0.1,0-0.1,0.1v13.6c0,0.1,0,0.1,0.1,0.1h19.5c0.1,0,0.1,0,0.1-0.1V9.3
			c0-0.1,0-0.1-0.1-0.1H4.4L4.4,9.2z"/>
	</g>
	<g>
		<path fill="#50453D" d="M18.2,8.9c-0.6,0-1-0.4-1-1V5.4c0-0.1,0-0.1-0.1-0.1h-5.8c-0.1,0-0.1,0-0.1,0.1v2.5c0,0.6-0.4,1-1,1
			c-0.6,0-1-0.4-1-1V5.4c0-1.2,0.9-2.1,2.1-2.1h5.8c1.2,0,2.1,0.9,2.1,2.1v2.5C19.2,8.5,18.7,8.9,18.2,8.9L18.2,8.9z"/>
	</g>
	<polygon fill="#50453D" points="15.5,12.2 12.8,12.2 12.8,14.8 10.3,14.8 10.3,17.5 12.8,17.5 12.8,20 15.5,20 15.5,17.5 
		18.1,17.5 18.1,14.8 15.5,14.8 15.5,12.2 	"/>
</g>
</svg>
