<?xml version="1.0" encoding="utf-8"?>
<!-- Generator: Adobe Illustrator 18.0.0, SVG Export Plug-In . SVG Version: 6.00 Build 0)  -->
<!DOCTYPE svg PUBLIC "-//W3C//DTD SVG 1.1//EN" "http://www.w3.org/Graphics/SVG/1.1/DTD/svg11.dtd">
<svg version="1.1" id="Layer_1" xmlns="http://www.w3.org/2000/svg" xmlns:xlink="http://www.w3.org/1999/xlink" x="0px" y="0px"
	 viewBox="0 0 28.4 28.4" enable-background="new 0 0 28.4 28.4" xml:space="preserve">
<path d="M16.6,9.8C17,9.6,17.4,9.3,17.7,9c0.3-0.2,0.5-0.5,0.7-0.8c-0.3-0.1-0.5-0.3-0.8-0.5l0,0C17.4,7.6,17.2,7.3,17,7
	c-0.2-0.3-0.3-0.7-0.3-1c0-0.4,0-0.7,0.1-1.1c0.1-0.3,0.4-0.4,0.7-0.4c0.3,0.1,0.4,0.4,0.4,0.7c-0.1,0.2-0.1,0.4-0.1,0.7
	c0,0.2,0.1,0.4,0.2,0.6c0.1,0.2,0.2,0.4,0.4,0.5l0,0c0.2,0.1,0.4,0.2,0.6,0.3c0,0,0.1,0,0.1,0c0.3-0.6,0.5-1.3,0.6-2
	c0.1-0.7,0-1.4-0.2-2.1c-0.1-0.3,0.1-0.6,0.4-0.7c0.3-0.1,0.6,0.1,0.7,0.4c0.3,0.8,0.3,1.7,0.3,2.5c-0.1,0.9-0.3,1.7-0.7,2.4
	c-0.4,0.7-0.9,1.4-1.6,1.9c-0.2,0.2-0.5,0.4-0.7,0.5c0.4,0.2,0.7,0.5,1,0.9l0.1-0.1h0c0.3-0.3,0.7-0.6,1.1-0.9l0.1,0
	c0.8-0.5,1.7-0.7,2.6-0.6c0.9,0,1.8,0.3,2.6,0.9c0.2,0.2,0.4,0.4,0.4,0.7h0c0.1,0.9-0.1,1.9-0.5,2.7c-0.4,0.8-1.1,1.5-1.9,2
	c-0.5,0.3-1,0.5-1.6,0.6l0,0c-0.2,0-0.3,0-0.5,0.1c0,0.9-0.1,1.7-0.3,2.5c-0.3,1.1-0.9,2.1-1.6,3c-0.3,0.4-0.5,0.7-0.7,1.1
	c-2.2,3.6-6.2,3.6-8.4,0c-0.2-0.4-0.4-0.7-0.7-1.1c-0.7-1-1.3-1.9-1.6-3c-0.2-0.8-0.4-1.6-0.3-2.5c-0.2,0-0.3,0-0.5-0.1l0,0
	c-0.5-0.1-1.1-0.3-1.6-0.6c-0.8-0.5-1.5-1.2-1.9-2c-0.4-0.8-0.6-1.8-0.5-2.7h0c0-0.3,0.2-0.5,0.4-0.7C4,10,4.9,9.7,5.8,9.6
	c0.9,0,1.8,0.2,2.6,0.6l0.1,0c0.4,0.2,0.8,0.5,1.1,0.9h0l0,0.1c0.3-0.3,0.7-0.6,1-0.9c-0.2-0.1-0.5-0.3-0.7-0.5
	C9.3,9.3,8.7,8.7,8.3,7.9C7.9,7.2,7.7,6.4,7.6,5.5C7.5,4.7,7.6,3.8,7.9,3C8,2.7,8.3,2.6,8.6,2.7C8.8,2.7,9,3.1,8.9,3.3
	C8.7,4,8.6,4.7,8.7,5.4c0.1,0.7,0.3,1.3,0.6,2c0,0,0.1,0,0.1,0C9.6,7.3,9.8,7.1,9.9,7l0,0c0.2-0.1,0.3-0.3,0.4-0.5
	c0.1-0.2,0.2-0.4,0.2-0.6c0-0.2,0-0.4-0.1-0.7c-0.1-0.3,0.1-0.6,0.4-0.7c0.3-0.1,0.6,0.1,0.7,0.4c0.1,0.4,0.1,0.7,0.1,1.1
	c0,0.4-0.1,0.7-0.3,1c-0.2,0.3-0.4,0.6-0.7,0.8l0,0C10.4,8,10.1,8.2,9.9,8.3c0.2,0.3,0.5,0.5,0.7,0.8c0.3,0.3,0.7,0.5,1.2,0.7
	C13.3,9.2,15,9.2,16.6,9.8L16.6,9.8z M14.2,22.2L14.2,22.2c0.2-0.1,0.5-0.2,0.6-0.4l0,0c1.3-1.4-2.6-1.4-1.3,0l0,0
	C13.7,22,13.9,22.1,14.2,22.2L14.2,22.2z M15.6,22.5L15.6,22.5L15.6,22.5c-0.3,0.3-0.6,0.5-0.9,0.6v0.7c1.2-0.2,1.6-0.9,2.1-1.7
	c0.2-0.4,0.5-0.8,0.8-1.2c0.6-0.8,1.1-1.6,1.3-2.5c0.3-0.8,0.3-1.7,0.1-2.7h0c0-0.1,0-0.2,0-0.3c0.1-0.5,0.5-0.8,1-0.7
	c0.3,0.1,0.7,0.1,1,0l0,0c0.3-0.1,0.7-0.2,1-0.4c0.5-0.3,0.9-0.7,1.2-1.2c0.2-0.4,0.3-0.8,0.3-1.3c-0.4-0.2-0.8-0.3-1.3-0.3
	c-0.5,0-1.1,0.1-1.6,0.4l0,0c-0.3,0.2-0.5,0.3-0.7,0.6v0l0,0c-0.2,0.2-0.4,0.4-0.5,0.7c-0.1,0.2-0.2,0.4-0.5,0.4
	c-0.5,0.2-1,0-1.2-0.5c-0.3-0.7-1.2-1.3-1.8-1.5c-1.2-0.6-2.7-0.6-4,0c-0.6,0.3-1.5,0.9-1.8,1.5c-0.2,0.4-0.7,0.7-1.2,0.5
	c-0.2-0.1-0.4-0.3-0.5-0.4c-0.1-0.3-0.3-0.5-0.5-0.7l0,0l0,0C8,12.2,7.8,12,7.5,11.9l0,0c-0.5-0.3-1.1-0.4-1.6-0.4
	c-0.4,0-0.9,0.1-1.3,0.3c0,0.4,0.1,0.9,0.3,1.3c0.3,0.5,0.7,0.9,1.2,1.2c0.3,0.2,0.6,0.3,1,0.4l0,0c0.3,0.1,0.7,0.1,1,0
	c0.5-0.1,0.9,0.3,1,0.7c0,0.1,0,0.2,0,0.3h0c-0.2,1-0.1,1.9,0.1,2.7c0.3,0.9,0.7,1.7,1.3,2.5c0.3,0.4,0.6,0.8,0.8,1.2
	c0.5,0.9,1,1.6,2.2,1.7v-0.7c-0.3-0.1-0.6-0.3-0.9-0.6l0,0c-1.2-1.3-0.4-2.6,1.4-2.6C16,19.9,16.8,21.2,15.6,22.5L15.6,22.5z
	 M11.9,16.6L11.9,16.6c-0.5,0-0.8,0.4-0.8,0.8c0,0.5,0.4,0.8,0.8,0.8c0.5,0,0.8-0.4,0.8-0.8C12.7,17,12.3,16.6,11.9,16.6L11.9,16.6z
	 M16.5,16.6L16.5,16.6c-0.5,0-0.8,0.4-0.8,0.8c0,0.5,0.4,0.8,0.8,0.8c0.5,0,0.8-0.4,0.8-0.8C17.3,17,16.9,16.6,16.5,16.6L16.5,16.6z
	"/>
</svg>
