<?xml version="1.0" encoding="utf-8"?>
<!-- Generator: Adobe Illustrator 18.0.0, SVG Export Plug-In . SVG Version: 6.00 Build 0)  -->
<!DOCTYPE svg PUBLIC "-//W3C//DTD SVG 1.1//EN" "http://www.w3.org/Graphics/SVG/1.1/DTD/svg11.dtd">
<svg version="1.1" id="Layer_1" xmlns="http://www.w3.org/2000/svg" xmlns:xlink="http://www.w3.org/1999/xlink" x="0px" y="0px"
	 viewBox="0 0 28.4 28.4" enable-background="new 0 0 28.4 28.4" xml:space="preserve">
<g>
	<g>
		<path fill="#50453D" d="M14.3,13.5c-2.1,0-3.8-1.9-3.8-4.2c0-2.3,1.7-4.2,3.8-4.2C16.3,5.1,18,7,18,9.3
			C18,11.6,16.3,13.5,14.3,13.5L14.3,13.5z M14.3,7.1c-1,0-1.8,1-1.8,2.2c0,1.2,0.8,2.2,1.8,2.2c1,0,1.8-1,1.8-2.2
			C16,8.1,15.2,7.1,14.3,7.1L14.3,7.1z"/>
	</g>
	<g>
		<path fill="#50453D" d="M19.5,23.3H8.8c-0.5,0-1-0.4-1-0.9c-0.1-1.2-0.2-2.3-0.2-3.5c-0.1-1.4,1-3,2.3-3.5c2.8-1,5.8-1,8.5,0
			c1.4,0.5,2.4,2.1,2.3,3.5l-0.2,3.5C20.5,22.9,20.1,23.3,19.5,23.3L19.5,23.3z M9.8,21.3h8.9l0.2-2.5c0-0.4-0.4-1.2-1-1.5
			c-2.3-0.8-4.8-0.8-7.1,0c-0.6,0.2-1,1-1,1.5C9.6,19.6,9.7,20.4,9.8,21.3L9.8,21.3z"/>
	</g>
	<g>
		<path fill="#50453D" d="M19.5,23.3H8.8c-0.5,0-1-0.4-1-0.9c-0.1-1.2-0.2-2.3-0.2-3.5c-0.1-1.4,1-3,2.3-3.5c2.8-1,5.8-1,8.5,0
			c1.4,0.5,2.4,2.1,2.3,3.5l-0.2,3.5C20.5,22.9,20.1,23.3,19.5,23.3L19.5,23.3z M9.8,21.3h8.9l0.2-2.5c0-0.4-0.4-1.2-1-1.5
			c-2.3-0.8-4.8-0.8-7.1,0c-0.6,0.2-1,1-1,1.5C9.6,19.6,9.7,20.4,9.8,21.3L9.8,21.3z"/>
	</g>
	<g>
		<path fill="#50453D" d="M26,21.7h-4.3c-0.3,0-0.5-0.2-0.5-0.5c0-0.3,0.2-0.5,0.5-0.5h3.8l0.2-2.5c0-0.5-0.4-1.4-1.1-1.6
			c-1-0.3-2-0.5-3-0.6c-0.3,0-0.5-0.2-0.5-0.5c0-0.3,0.2-0.5,0.5-0.5c0,0,0,0,0,0c1.1,0,2.3,0.2,3.4,0.6c1,0.4,1.9,1.6,1.8,2.6
			l-0.2,3C26.5,21.4,26.3,21.7,26,21.7L26,21.7z"/>
	</g>
	<g>
		<path fill="#50453D" d="M22.7,13.9c-1.5,0-2.7-1.3-2.7-3c0-1.7,1.2-3,2.7-3c1.5,0,2.7,1.3,2.7,3C25.4,12.5,24.2,13.9,22.7,13.9
			L22.7,13.9z M22.7,8.9c-0.9,0-1.7,0.9-1.7,2c0,1.1,0.8,2,1.7,2c0.9,0,1.7-0.9,1.7-2C24.4,9.8,23.7,8.9,22.7,8.9L22.7,8.9z"/>
	</g>
	<g>
		<path fill="#50453D" d="M6.6,21.7H2.3c-0.3,0-0.5-0.2-0.5-0.5l-0.2-3c-0.1-1,0.7-2.3,1.8-2.6C4.5,15.2,5.6,15,6.8,15
			c0.3,0,0.5,0.2,0.5,0.5c0,0.3-0.2,0.5-0.5,0.5c-1,0-2.1,0.2-3,0.6c-0.7,0.2-1.2,1.1-1.1,1.6l0.2,2.5h3.8c0.3,0,0.5,0.2,0.5,0.5
			C7.1,21.4,6.9,21.7,6.6,21.7L6.6,21.7z"/>
	</g>
	<g>
		<path fill="#50453D" d="M5.6,13.9c-1.5,0-2.7-1.3-2.7-3c0-1.7,1.2-3,2.7-3c1.5,0,2.7,1.3,2.7,3C8.3,12.5,7.1,13.9,5.6,13.9
			L5.6,13.9z M5.6,8.9c-0.9,0-1.7,0.9-1.7,2c0,1.1,0.7,2,1.7,2c0.9,0,1.7-0.9,1.7-2C7.3,9.8,6.5,8.9,5.6,8.9L5.6,8.9z"/>
	</g>
</g>
</svg>
