<?xml version="1.0" encoding="utf-8"?>
<!-- Generator: Adobe Illustrator 18.0.0, SVG Export Plug-In . SVG Version: 6.00 Build 0)  -->
<!DOCTYPE svg PUBLIC "-//W3C//DTD SVG 1.1//EN" "http://www.w3.org/Graphics/SVG/1.1/DTD/svg11.dtd">
<svg version="1.1" id="Layer_1" xmlns="http://www.w3.org/2000/svg" xmlns:xlink="http://www.w3.org/1999/xlink" x="0px" y="0px"
	 viewBox="0 0 28.4 28.4" enable-background="new 0 0 28.4 28.4" xml:space="preserve">
<g>
	<g>
		<path fill="#50453D" d="M22.6,11.2L22.6,11.2l-15.4,0c-0.3,0-0.5-0.1-0.7-0.3c-0.2-0.2-0.3-0.4-0.3-0.7l0-5c0-0.6,0.4-1,1-1
			c0,0,0,0,0,0l15.4,0c0.3,0,0.5,0.1,0.7,0.3L25.7,7c0.3,0.4,0.3,1,0,1.4l-2.3,2.5C23.2,11.1,22.9,11.2,22.6,11.2L22.6,11.2z
			 M8.2,9.1l14,0l1.4-1.5l-1.4-1.5l-14,0L8.2,9.1L8.2,9.1z"/>
	</g>
	<g>
		<path fill="#50453D" d="M21.1,19.2L21.1,19.2l-15.4,0c-0.3,0-0.5-0.1-0.7-0.3l-2.3-2.5c-0.3-0.4-0.3-1,0-1.3L5,12.4
			c0.2-0.2,0.5-0.3,0.7-0.3h0l15.4,0c0.6,0,1,0.5,1,1l0,5c0,0.3-0.1,0.5-0.3,0.7C21.6,19.1,21.4,19.2,21.1,19.2L21.1,19.2z
			 M6.1,17.1l14,0l0-3l-14,0l-1.4,1.5L6.1,17.1L6.1,17.1z"/>
	</g>
	<g>
		<path fill="#50453D" d="M13.5,26L13.5,26c-0.6,0-1-0.5-1-1l0-6.8c0-0.6,0.4-1,1-1c0,0,0,0,0,0c0.6,0,1,0.5,1,1l0,6.8
			C14.5,25.6,14,26,13.5,26L13.5,26z"/>
	</g>
	<g>
		<path fill="#50453D" d="M13.5,5.4L13.5,5.4c-0.6,0-1-0.4-1-1l0-1.1c0-0.6,0.4-1,1-1h0c0.6,0,1,0.4,1,1l0,1.1
			C14.5,4.9,14.1,5.4,13.5,5.4L13.5,5.4z"/>
	</g>
	<g>
		<path fill="#50453D" d="M13.5,13.5C13.5,13.5,13.5,13.5,13.5,13.5c-0.6,0-1-0.5-1-1l0-1.7c0-0.6,0.4-1,1-1c0,0,0,0,0,0
			c0.6,0,1,0.5,1,1l0,1.7C14.5,13.1,14.1,13.5,13.5,13.5L13.5,13.5z"/>
	</g>
</g>
</svg>
