<?xml version="1.0" encoding="utf-8"?>
<!-- Generator: Adobe Illustrator 18.0.0, SVG Export Plug-In . SVG Version: 6.00 Build 0)  -->
<!DOCTYPE svg PUBLIC "-//W3C//DTD SVG 1.1//EN" "http://www.w3.org/Graphics/SVG/1.1/DTD/svg11.dtd">
<svg version="1.1" id="Layer_1" xmlns="http://www.w3.org/2000/svg" xmlns:xlink="http://www.w3.org/1999/xlink" x="0px" y="0px"
	 viewBox="0 0 28.4 28.4" enable-background="new 0 0 28.4 28.4" xml:space="preserve">
<g>
	<path fill="#50453D" d="M14.2,2.6l3.5,4.5l3.5,4.5h-3l0,0.1l4.1,5.2h-3l4.1,5.2h-9.2H5l4.1-5.2h-3l4.1-5.2l0-0.1h-3l3.5-4.5
		L14.2,2.6 M14.2,0.3c-0.7,0-1.4,0.3-1.8,0.9L8.8,5.7l-3.5,4.5c-0.5,0.7-0.6,1.6-0.3,2.4c0.2,0.4,0.4,0.7,0.7,0.9l-1.5,2
		c-0.5,0.7-0.6,1.6-0.3,2.4c0.2,0.4,0.4,0.6,0.7,0.9l-1.5,2c-0.5,0.7-0.6,1.6-0.3,2.4c0.4,0.8,1.2,1.3,2,1.3h9.2h9.2
		c0.9,0,1.7-0.5,2-1.3c0.4-0.8,0.3-1.7-0.3-2.4l-1.5-2c0.3-0.2,0.6-0.5,0.7-0.9c0.4-0.8,0.3-1.7-0.3-2.4l-1.5-2
		c0.3-0.2,0.6-0.5,0.7-0.9c0.4-0.8,0.3-1.7-0.3-2.4l-3.5-4.5L16,1.2C15.5,0.6,14.9,0.3,14.2,0.3L14.2,0.3L14.2,0.3z"/>
	<g>
		<path fill="#50453D" d="M16,28h-3.7c-0.6,0-1.1-0.5-1.1-1.1v-3c0-0.6,0.5-1.1,1.1-1.1c0.6,0,1.1,0.5,1.1,1.1v1.9h1.4v-1.9
			c0-0.6,0.5-1.1,1.1-1.1c0.6,0,1.1,0.5,1.1,1.1v3C17.2,27.5,16.7,28,16,28L16,28z"/>
	</g>
</g>
</svg>
