<?xml version="1.0" encoding="utf-8"?>
<!-- Generator: Adobe Illustrator 18.0.0, SVG Export Plug-In . SVG Version: 6.00 Build 0)  -->
<!DOCTYPE svg PUBLIC "-//W3C//DTD SVG 1.1//EN" "http://www.w3.org/Graphics/SVG/1.1/DTD/svg11.dtd">
<svg version="1.1" id="Layer_1" xmlns="http://www.w3.org/2000/svg" xmlns:xlink="http://www.w3.org/1999/xlink" x="0px" y="0px"
	 viewBox="0 0 28.4 28.4" enable-background="new 0 0 28.4 28.4" xml:space="preserve">
<g>
	<g>
		<g>
			<path fill="#50453D" d="M17.9,14c-0.3,0-0.6-0.1-0.9-0.2c-2.1-0.7-3.5-3.2-3.3-5.7c0.2-2.6,2.4-4.8,4.8-4.8c0,0,0,0,0,0
				c1.1,0,2,0.4,2.7,1.3c0.9,1.1,1.3,2.9,0.9,4.8C21.5,12,19.8,14,17.9,14L17.9,14z M18.5,5.1c-1.5,0-2.9,1.5-3,3.1
				c-0.1,1.6,0.8,3.4,2,3.8c0.1,0,0.2,0.1,0.3,0.1c0.8,0,1.9-1.1,2.3-3.2c0.3-1.3,0.1-2.5-0.5-3.2C19.4,5.3,19,5.1,18.5,5.1
				L18.5,5.1z"/>
		</g>
		<g>
			<path fill="#50453D" d="M21.9,19.6c-0.7,0-1.3-0.2-1.9-0.5c-1.8-1.2-2.2-3.5-0.8-5.7c1.1-1.8,3-3,4.7-3c0.5,0,0.9,0.1,1.3,0.3
				c0.7,0.3,1.2,1,1.5,1.9c0.4,1.4,0.1,3.2-0.9,4.6C24.9,18.7,23.4,19.6,21.9,19.6L21.9,19.6z M23.9,12.2c-1,0-2.3,0.9-3.1,2.1
				c-0.8,1.3-0.7,2.5,0.2,3.1c0.9,0.6,2.3,0,3.2-1.3c0.6-1,0.9-2.3,0.6-3.1c-0.1-0.3-0.3-0.6-0.5-0.7C24.2,12.2,24.1,12.2,23.9,12.2
				L23.9,12.2z"/>
		</g>
		<g>
			<path fill="#50453D" d="M10.5,14C10.5,14,10.5,14,10.5,14C8.6,14,6.9,12,6.3,9.3c-0.4-1.9,0-3.6,0.9-4.8c0.7-0.8,1.6-1.3,2.6-1.3
				c2.5,0,4.7,2.2,4.9,4.8c0.2,2.5-1.2,5-3.3,5.7C11.1,13.9,10.8,14,10.5,14L10.5,14z M9.8,5.1C9.4,5.1,9,5.3,8.7,5.7
				C8.1,6.4,7.9,7.6,8.1,8.9c0.4,2.1,1.5,3.2,2.3,3.2c0.1,0,0.2,0,0.3-0.1c1.2-0.4,2.2-2.2,2-3.8C12.7,6.6,11.3,5.2,9.8,5.1L9.8,5.1
				L9.8,5.1z"/>
		</g>
		<g>
			<path fill="#50453D" d="M6.4,19.6L6.4,19.6c-1.5,0-2.9-0.9-3.9-2.4c-0.9-1.5-1.3-3.3-0.9-4.6c0.2-0.9,0.8-1.5,1.5-1.9
				c0.4-0.2,0.8-0.3,1.3-0.3c1.7,0,3.6,1.2,4.7,3c1.3,2.2,1,4.5-0.8,5.7C7.7,19.4,7.1,19.6,6.4,19.6L6.4,19.6z M4.5,12.2
				c-0.2,0-0.4,0-0.5,0.1c-0.2,0.1-0.4,0.3-0.5,0.7c-0.2,0.9,0,2.1,0.6,3.1c0.8,1.3,2.2,1.9,3.2,1.3c0.9-0.6,1-1.8,0.2-3.1
				C6.8,13.1,5.4,12.2,4.5,12.2L4.5,12.2z"/>
		</g>
	</g>
	<g>
		<path fill="#50453D" d="M14.2,25.1C14.2,25.1,14.2,25.1,14.2,25.1l-1.4,0c-3.9-0.1-6-0.2-6.8-1.5c-0.2-0.4-0.4-1-0.1-1.9
			c1-2.6,5-7.6,8.2-7.4c3.2-0.2,7.2,4.8,8.2,7.4c0.4,0.8,0.2,1.5-0.1,1.8c-0.8,1.3-2.9,1.3-6.8,1.5L14.2,25.1
			C14.2,25.1,14.2,25.1,14.2,25.1L14.2,25.1z M7.6,22.6c0.5,0.4,3.1,0.5,5.2,0.6l1.3,0l1.3,0c2.1-0.1,4.7-0.2,5.2-0.6
			c0,0,0-0.1-0.1-0.1c-0.9-2.4-4.4-6.4-6.4-6.2c-0.1,0-0.1,0-0.2,0c-2-0.1-5.5,3.8-6.4,6.2C7.7,22.5,7.6,22.6,7.6,22.6L7.6,22.6z"/>
	</g>
</g>
</svg>
