<?xml version="1.0" encoding="utf-8"?>
<!-- Generator: Adobe Illustrator 18.0.0, SVG Export Plug-In . SVG Version: 6.00 Build 0)  -->
<!DOCTYPE svg PUBLIC "-//W3C//DTD SVG 1.1//EN" "http://www.w3.org/Graphics/SVG/1.1/DTD/svg11.dtd">
<svg version="1.1" id="Layer_1" xmlns="http://www.w3.org/2000/svg" xmlns:xlink="http://www.w3.org/1999/xlink" x="0px" y="0px"
	 viewBox="0 0 28.4 28.4" enable-background="new 0 0 28.4 28.4" xml:space="preserve">
<path d="M24.5,7.1h-7.4V4.3c0-0.3-0.2-0.5-0.5-0.5h-4.8c-0.3,0-0.5,0.2-0.5,0.5v2.8H3.8c-0.5,0-0.9,0.4-0.9,0.9v15.8
	c0,0.5,0.4,0.9,0.9,0.9h20.7c0.5,0,0.9-0.4,0.9-0.9V7.9C25.4,7.4,25,7.1,24.5,7.1L24.5,7.1z M12.3,4.8L12.3,4.8h3.8v2.2h-3.8V4.8
	L12.3,4.8z M9,8.1L9,8.1h10.4v1.7H9V8.1L9,8.1z M23.7,22.8L23.7,22.8h-19V8.8H8v1.5c0,0.3,0.2,0.5,0.5,0.5h11.4
	c0.3,0,0.5-0.2,0.5-0.5V8.8h3.3V22.8L23.7,22.8z M21.7,15.6L21.7,15.6h-5.4c-0.3,0-0.5,0.2-0.5,0.5c0,0.3,0.2,0.5,0.5,0.5h5.4
	c0.3,0,0.5-0.2,0.5-0.5C22.3,15.9,22,15.6,21.7,15.6L21.7,15.6z M21.7,17.9L21.7,17.9h-5.4c-0.3,0-0.5,0.2-0.5,0.5
	c0,0.3,0.2,0.5,0.5,0.5h5.4c0.3,0,0.5-0.2,0.5-0.5C22.3,18.1,22,17.9,21.7,17.9L21.7,17.9z M15.9,13.9L15.9,13.9
	c0,0.3,0.2,0.5,0.5,0.5h5.4c0.3,0,0.5-0.2,0.5-0.5c0-0.3-0.2-0.5-0.5-0.5h-5.4C16.1,13.4,15.9,13.6,15.9,13.9L15.9,13.9z M13.2,18.1
	L13.2,18.1c-0.3-0.3-0.6-0.5-0.9-0.6l-0.1,0l0.1-0.1c0.6-0.6,0.9-1.4,0.9-2.3c0-0.9-0.4-1.7-0.9-2.3c-0.6-0.6-1.4-1-2.3-1
	c-0.9,0-1.7,0.4-2.3,1c-0.6,0.6-0.9,1.4-0.9,2.3c0,0.9,0.4,1.7,0.9,2.3l0.1,0.1c-0.4,0.1-0.7,0.4-1,0.6c-0.3,0.3-0.5,0.6-0.6,0.9
	c-0.1,0.3-0.2,0.7-0.2,1.1v0.8c0,0.3,0.2,0.5,0.5,0.5h7.1c0.3,0,0.5-0.2,0.5-0.5v-0.8c0-0.4-0.1-0.7-0.2-1.1
	C13.7,18.7,13.5,18.4,13.2,18.1L13.2,18.1z M8.4,13.6L8.4,13.6c0.4-0.4,0.9-0.6,1.6-0.6c0.6,0,1.2,0.2,1.6,0.6
	c0.4,0.4,0.6,1,0.6,1.6c0,0.6-0.2,1.2-0.6,1.6c-0.9,0.9-2.3,0.9-3.1,0c-0.4-0.4-0.6-0.9-0.6-1.6C7.8,14.5,8,14,8.4,13.6L8.4,13.6z
	 M13,20.3L13,20.3H7v-0.2c0-0.2,0-0.5,0.1-0.7c0.1-0.2,0.2-0.4,0.4-0.6c0.3-0.3,0.7-0.5,1.2-0.5h2.5c0.2,0,0.5,0,0.7,0.1
	c0.2,0.1,0.4,0.2,0.6,0.4c0.2,0.2,0.3,0.4,0.4,0.6c0.1,0.2,0.1,0.4,0.1,0.7V20.3L13,20.3z"/>
</svg>
