<?xml version="1.0" encoding="utf-8"?>
<!-- Generator: Adobe Illustrator 18.0.0, SVG Export Plug-In . SVG Version: 6.00 Build 0)  -->
<!DOCTYPE svg PUBLIC "-//W3C//DTD SVG 1.1//EN" "http://www.w3.org/Graphics/SVG/1.1/DTD/svg11.dtd">
<svg version="1.1" id="Layer_1" xmlns="http://www.w3.org/2000/svg" xmlns:xlink="http://www.w3.org/1999/xlink" x="0px" y="0px"
	 viewBox="0 0 28.4 28.4" enable-background="new 0 0 28.4 28.4" xml:space="preserve">
<g>
	<g>
		<path fill="#50453D" d="M16.3,20.5c-4,0-7.6-2.1-9.6-5.6c-0.2-0.3-0.2-0.7,0-1.1c2-3.5,5.6-5.6,9.6-5.6c4,0,7.6,2.1,9.6,5.6
			c0.2,0.3,0.2,0.7,0,1.1C24,18.3,20.3,20.5,16.3,20.5L16.3,20.5z M8.9,14.3c1.6,2.5,4.4,4,7.4,4c3,0,5.8-1.5,7.4-4
			c-1.6-2.5-4.4-4-7.4-4C13.3,10.3,10.6,11.9,8.9,14.3L8.9,14.3z"/>
	</g>
	<g>
		<path fill="#50453D" d="M3.3,19.5c-0.2,0-0.4-0.1-0.6-0.2c-0.3-0.2-0.5-0.5-0.5-0.9v-8.2c0-0.4,0.2-0.7,0.5-0.9
			c0.3-0.2,0.7-0.2,1-0.1c2.1,1,3.8,2.6,4.9,4.5c0.2,0.3,0.2,0.7,0,1.1c-1.1,2-2.8,3.6-4.9,4.5C3.6,19.5,3.5,19.5,3.3,19.5L3.3,19.5
			z M4.4,12.1v4.5C5.2,16,6,15.2,6.5,14.3C6,13.5,5.2,12.7,4.4,12.1L4.4,12.1z"/>
	</g>
	<path fill="#50453D" d="M20.1,13.1c-0.5,0-0.8,0.4-0.8,0.8c0,0.5,0.4,0.8,0.8,0.8c0.5,0,0.8-0.4,0.8-0.8
		C21,13.5,20.6,13.1,20.1,13.1L20.1,13.1z"/>
	<g>
		<path fill="#50453D" d="M11.1,11.1c-0.2,0-0.4-0.1-0.5-0.3C10.4,10.2,10,9.6,9.5,9C9.3,8.8,9,8.5,8.8,8.3C8.7,8.2,8.6,8,8.6,7.9
			c0-0.2,0.1-0.3,0.2-0.4c1.7-1.2,3.8-1.8,5.9-1.6c2.4,0.3,4.5,1.5,5.9,3.4c0.2,0.2,0.1,0.5-0.1,0.7c-0.2,0.2-0.5,0.1-0.7-0.1
			c-1.2-1.7-3.2-2.8-5.2-3C13,6.7,11.3,7.1,9.9,8c0.1,0.1,0.3,0.3,0.4,0.4c0.5,0.6,1,1.3,1.3,2c0.1,0.3,0,0.5-0.2,0.7
			C11.3,11.1,11.2,11.1,11.1,11.1L11.1,11.1z"/>
	</g>
	<g>
		<path fill="#50453D" d="M13.8,22.1c-0.4,0-0.7-0.1-1-0.2c-0.1,0-0.3-0.1-0.3-0.3c-0.1-0.1-0.1-0.3,0-0.4c0,0,0-0.1,0-0.1
			c0,0,0-0.1,0.1-0.1c0.3-0.7,0.2-1.5-0.1-2c-0.1-0.2-0.1-0.4,0-0.6c0.1-0.2,0.3-0.2,0.5-0.2c1,0.3,2.1,0.5,3.1,0.5
			c0.2,0,0.4,0.1,0.4,0.3c0.1,0.3,0.2,0.6,0.2,0.8C16.7,21.1,15.4,22.1,13.8,22.1L13.8,22.1z M13.6,21.1c1.1,0.1,2.2-0.5,2.2-1.3
			c0,0,0-0.1,0-0.1c-0.7,0-1.4-0.1-2.1-0.3C13.8,20,13.8,20.5,13.6,21.1L13.6,21.1z"/>
	</g>
	<g>
		<path fill="#50453D" d="M17.5,22.5c-0.1,0-0.2,0-0.3-0.1C17.1,22.3,17,22.1,17,22c0,0,0-0.1,0-0.1c0-0.1,0-0.1,0-0.2
			c0-0.8-0.4-1.5-0.9-1.8c-0.2-0.1-0.3-0.3-0.2-0.5c0-0.2,0.2-0.4,0.4-0.4c1-0.1,2.1-0.4,3.1-0.8c0.2-0.1,0.4,0,0.5,0.1
			c0.2,0.2,0.4,0.4,0.5,0.7c0.3,0.6,0.2,1.3-0.2,1.9c-0.3,0.6-0.9,1.1-1.6,1.4C18.3,22.3,17.9,22.4,17.5,22.5
			C17.6,22.5,17.6,22.5,17.5,22.5L17.5,22.5z M17.4,19.8c0.3,0.4,0.5,0.9,0.6,1.5c0.1,0,0.1-0.1,0.2-0.1c0.5-0.2,0.9-0.6,1.1-1
			c0.2-0.4,0.2-0.7,0.1-1c0,0,0-0.1-0.1-0.1C18.8,19.5,18.1,19.7,17.4,19.8L17.4,19.8z"/>
	</g>
	<g>
		<path fill="#50453D" d="M18.9,19.6c-0.2,0-0.3-0.1-0.4-0.2c-1.1-1.5-1.6-3.2-1.6-4.9c0-1.8,0.6-3.6,1.8-5.1
			c0.1-0.2,0.3-0.2,0.5-0.2c2.6,0.7,4.9,2.5,6.3,4.9c0.1,0.2,0.1,0.3,0,0.5c-1.4,2.4-3.7,4.2-6.5,5C19,19.6,18.9,19.6,18.9,19.6
			L18.9,19.6z M19.2,10.2c-0.9,1.3-1.4,2.8-1.4,4.2c0,1.4,0.4,2.7,1.2,4c2.2-0.7,4.1-2.2,5.4-4.1C23.3,12.4,21.4,10.9,19.2,10.2
			L19.2,10.2z"/>
	</g>
</g>
</svg>
