<?xml version="1.0" encoding="utf-8"?>
<!-- Generator: Adobe Illustrator 18.0.0, SVG Export Plug-In . SVG Version: 6.00 Build 0)  -->
<!DOCTYPE svg PUBLIC "-//W3C//DTD SVG 1.1//EN" "http://www.w3.org/Graphics/SVG/1.1/DTD/svg11.dtd">
<svg version="1.1" id="Layer_1" xmlns="http://www.w3.org/2000/svg" xmlns:xlink="http://www.w3.org/1999/xlink" x="0px" y="0px"
	 viewBox="0 0 28.4 28.4" enable-background="new 0 0 28.4 28.4" xml:space="preserve">
<path fill="#50453D" d="M13.6,11.3c0-0.5-0.2-1-0.6-1.4c-0.3-0.3-0.8-0.6-1.3-0.6H8.3C8.2,9.3,8,9.2,7.9,9.1C7.8,9,7.7,8.8,7.7,8.6
	V6.5c0-0.2,0.1-0.4,0.2-0.5C8,5.9,8.2,5.8,8.3,5.8h3.2c0.2,0,0.4,0.1,0.5,0.2c0.1,0.1,0.2,0.3,0.2,0.5c0,0.4,0.3,0.7,0.6,0.7
	c0.4,0,0.6-0.3,0.6-0.7c0-0.5-0.2-1-0.6-1.4c-0.4-0.4-0.9-0.6-1.4-0.6h-1V4c0-0.4-0.3-0.7-0.6-0.7C9.6,3.3,9.3,3.6,9.3,4v0.6h-1
	c-0.5,0-1,0.2-1.4,0.6C6.6,5.5,6.4,6,6.4,6.5v2.1c0,0.5,0.2,1,0.6,1.4c0.3,0.3,0.8,0.6,1.3,0.6h3.3c0.2,0,0.3,0.1,0.5,0.2
	c0.1,0.1,0.2,0.3,0.2,0.5c0,0.7,0,1.4,0,2.1c0,0.2-0.1,0.4-0.2,0.5c-0.1,0.1-0.3,0.2-0.5,0.2H8.3c-0.2,0-0.3-0.1-0.5-0.2
	c-0.1-0.1-0.2-0.3-0.2-0.5c0-0.4-0.3-0.7-0.7-0.7c-0.4,0-0.6,0.3-0.6,0.7c0,0.5,0.2,1,0.6,1.4c0.4,0.4,0.8,0.6,1.4,0.6h1V16
	c0,0.4,0.3,0.6,0.6,0.6c0.4,0,0.6-0.3,0.6-0.6v-0.6h1c0.5,0,1-0.2,1.4-0.6c0.4-0.4,0.6-0.9,0.6-1.4V12v0V11.3L13.6,11.3z M22.2,9.5
	L22.2,9.5c-0.8-0.3-1.7-0.6-2.6-0.7C19,4,14.9,0.3,10,0.3c-5.3,0-9.7,4.3-9.7,9.7c0,4.9,3.7,9,8.5,9.6c0.4,3.4,2.7,6.4,5.9,7.7
	c1.1,0.5,2.4,0.7,3.7,0.7c2.6,0,5-1,6.8-2.8c1.8-1.8,2.8-4.3,2.8-6.8C28.1,14.5,25.7,11,22.2,9.5L22.2,9.5z M2.5,10L2.5,10
	c0-4.1,3.4-7.5,7.5-7.5c4.1,0,7.5,3.4,7.5,7.5c0,4.1-3.4,7.5-7.5,7.5C5.8,17.5,2.5,14.1,2.5,10L2.5,10z M23.7,23.7L23.7,23.7
	c-1.4,1.4-3.3,2.2-5.3,2.2c-1,0-2-0.2-2.9-0.6c-2.4-1-4.1-3.2-4.5-5.7c1.5-0.2,2.9-0.7,4.2-1.4c0.1,0.1,0.2,0.2,0.2,0.3
	c0.3,0.3,0.8,0.6,1.3,0.6H20c0.2,0,0.3,0.1,0.5,0.2c0.1,0.1,0.2,0.3,0.2,0.5c0,0.7,0,1.4,0,2.1c0,0.2-0.1,0.4-0.2,0.5
	c-0.1,0.1-0.3,0.2-0.5,0.2h-3.2c-0.2,0-0.3-0.1-0.5-0.2c-0.1-0.1-0.2-0.3-0.2-0.5c0-0.4-0.3-0.7-0.6-0.7c-0.4,0-0.7,0.3-0.7,0.7
	c0,0.5,0.2,1,0.6,1.4c0.4,0.4,0.8,0.6,1.4,0.6h1v0.6c0,0.4,0.3,0.6,0.6,0.6c0.4,0,0.6-0.3,0.6-0.6v-0.6h1c0.5,0,1-0.2,1.4-0.6
	c0.4-0.4,0.6-0.9,0.6-1.4v-2.1c0-0.5-0.2-1-0.6-1.4c-0.3-0.3-0.8-0.6-1.3-0.6h-3.3c-0.2,0-0.3-0.1-0.5-0.2c0,0-0.1-0.1-0.1-0.1
	c1-0.9,1.9-1.9,2.5-3.1H20c0.2,0,0.4,0.1,0.5,0.2c0.1,0.1,0.2,0.3,0.2,0.5c0,0.4,0.3,0.7,0.7,0.7c0.4,0,0.6-0.3,0.6-0.7
	c0-0.5-0.2-1-0.6-1.4C21,13.2,20.5,13,20,13h-0.8c0.2-0.6,0.3-1.3,0.4-2c0.6,0.1,1.2,0.3,1.7,0.5c2.7,1.2,4.6,3.9,4.6,6.9
	C25.9,20.4,25.1,22.3,23.7,23.7L23.7,23.7z"/>
</svg>
