<?xml version="1.0" encoding="utf-8"?>
<!-- Generator: Adobe Illustrator 18.0.0, SVG Export Plug-In . SVG Version: 6.00 Build 0)  -->
<!DOCTYPE svg PUBLIC "-//W3C//DTD SVG 1.1//EN" "http://www.w3.org/Graphics/SVG/1.1/DTD/svg11.dtd">
<svg version="1.1" id="Layer_1" xmlns="http://www.w3.org/2000/svg" xmlns:xlink="http://www.w3.org/1999/xlink" x="0px" y="0px"
	 viewBox="0 0 28.4 28.4" enable-background="new 0 0 28.4 28.4" xml:space="preserve">
<g>
	<g>
		<path fill="#50453D" d="M20,25.8H5.8c-2.2,0-4-1.8-4-4v-1.2c0-2.2,1.8-4,4-4H20c0.6,0,1,0.4,1,1c0,0.6-0.4,1-1,1H5.8
			c-1.1,0-2,0.9-2,2v1.2c0,1.1,0.9,2,2,2H20c0.6,0,1,0.4,1,1C21,25.4,20.5,25.8,20,25.8L20,25.8z"/>
	</g>
	<g>
		<path fill="#50453D" d="M3.2,20.2c-0.2,0-0.4-0.1-0.6-0.2c-0.4-0.3-0.5-1-0.2-1.4l1.6-2c0.3-0.4,1-0.5,1.4-0.2
			c0.4,0.3,0.5,1,0.2,1.4l-1.6,2C3.7,20.1,3.4,20.2,3.2,20.2L3.2,20.2z"/>
	</g>
	<g>
		<path fill="#50453D" d="M20.2,25.8c-0.2,0-0.4-0.1-0.6-0.2c-0.4-0.3-0.5-1-0.2-1.4l5.3-6.6c0.3-0.4,1-0.5,1.4-0.2
			c0.4,0.3,0.5,1,0.2,1.4L21,25.5C20.8,25.7,20.5,25.8,20.2,25.8L20.2,25.8z"/>
	</g>
	<g>
		<path fill="#50453D" d="M20,18.7c-0.2,0-0.5-0.1-0.6-0.2c-0.4-0.4-0.5-1-0.1-1.4l5.6-6.7c0.4-0.4,1-0.5,1.4-0.1
			c0.4,0.4,0.5,1,0.1,1.4l-5.6,6.7C20.5,18.5,20.3,18.7,20,18.7L20,18.7z"/>
	</g>
	<g>
		<path fill="#50453D" d="M19.3,20.8H5.7c-0.3,0-0.5-0.2-0.5-0.5c0-0.3,0.2-0.5,0.5-0.5h13.6c0.3,0,0.5,0.2,0.5,0.5
			C19.8,20.6,19.6,20.8,19.3,20.8L19.3,20.8z"/>
	</g>
	<g>
		<path fill="#50453D" d="M19.3,22.7H5.7c-0.3,0-0.5-0.2-0.5-0.5c0-0.3,0.2-0.5,0.5-0.5h13.6c0.3,0,0.5,0.2,0.5,0.5
			C19.8,22.4,19.6,22.7,19.3,22.7L19.3,22.7z"/>
	</g>
	<g>
		<path fill="#50453D" d="M20,18.3H5.8c-2.2,0-4-1.8-4-4v-1.2c0-2.2,1.8-4,4-4H20c0.6,0,1,0.4,1,1c0,0.6-0.4,1-1,1H5.8
			c-1.1,0-2,0.9-2,2v1.2c0,1.1,0.9,2,2,2H20c0.6,0,1,0.4,1,1C21,17.9,20.5,18.3,20,18.3L20,18.3z"/>
	</g>
	<g>
		<path fill="#50453D" d="M8.4,6.2C8.2,6.2,8,6.1,7.8,6C7.4,5.7,7.3,5,7.6,4.6c0.7-1,1.7-2.2,3.5-2.1l14.4,0c0.6,0,1,0.4,1,1
			c0,0.6-0.4,1-1,1H11.1c-0.8,0-1.1,0.3-1.9,1.3C9,6.1,8.7,6.2,8.4,6.2L8.4,6.2z"/>
	</g>
	<g>
		<path fill="#50453D" d="M3.2,12.7c-0.2,0-0.4-0.1-0.6-0.2c-0.4-0.3-0.5-1-0.2-1.4l5.3-6.6c0.3-0.4,1-0.5,1.4-0.2
			c0.4,0.3,0.5,1,0.2,1.4l-5.3,6.6C3.7,12.6,3.4,12.7,3.2,12.7L3.2,12.7z"/>
	</g>
	<g>
		<path fill="#50453D" d="M20.2,18.3c-0.2,0-0.4-0.1-0.6-0.2c-0.4-0.3-0.5-1-0.2-1.4l5.3-6.6c0.3-0.4,1-0.5,1.4-0.2
			c0.4,0.3,0.5,1,0.2,1.4L21,18C20.8,18.2,20.5,18.3,20.2,18.3L20.2,18.3z"/>
	</g>
	<g>
		<path fill="#50453D" d="M20,11.2c-0.2,0-0.5-0.1-0.6-0.2c-0.4-0.4-0.5-1-0.1-1.4l5.6-6.7c0.4-0.4,1-0.5,1.4-0.1
			c0.4,0.4,0.5,1,0.1,1.4l-5.6,6.7C20.5,11,20.3,11.2,20,11.2L20,11.2z"/>
	</g>
	<g>
		<path fill="#50453D" d="M19.3,13.3H5.7c-0.3,0-0.5-0.2-0.5-0.5c0-0.3,0.2-0.5,0.5-0.5h13.6c0.3,0,0.5,0.2,0.5,0.5
			C19.8,13.1,19.6,13.3,19.3,13.3L19.3,13.3z"/>
	</g>
	<g>
		<path fill="#50453D" d="M19.3,15.2H5.7c-0.3,0-0.5-0.2-0.5-0.5c0-0.3,0.2-0.5,0.5-0.5h13.6c0.3,0,0.5,0.2,0.5,0.5
			C19.8,14.9,19.6,15.2,19.3,15.2L19.3,15.2z"/>
	</g>
</g>
</svg>
