<?xml version="1.0" encoding="utf-8"?>
<!-- Generator: Adobe Illustrator 18.0.0, SVG Export Plug-In . SVG Version: 6.00 Build 0)  -->
<!DOCTYPE svg PUBLIC "-//W3C//DTD SVG 1.1//EN" "http://www.w3.org/Graphics/SVG/1.1/DTD/svg11.dtd">
<svg version="1.1" id="Layer_1" xmlns="http://www.w3.org/2000/svg" xmlns:xlink="http://www.w3.org/1999/xlink" x="0px" y="0px"
	 viewBox="0 0 28.4 28.4" enable-background="new 0 0 28.4 28.4" xml:space="preserve">
<path d="M21.2,15.7c0-0.3,0.3-0.6,0.6-0.6c0.3,0,0.6,0.3,0.6,0.6v3.7c0,0.3-0.3,0.6-0.6,0.6h0h-6c-0.3,0-0.6-0.3-0.6-0.6v0v-3.7
	c0-0.3,0.3-0.6,0.6-0.6c0.3,0,0.6,0.3,0.6,0.6v3.1h4.8V15.7L21.2,15.7z M23.8,15.3L23.8,15.3v8.9H4.3v-8.9c0-0.3-0.3-0.6-0.6-0.6
	c-0.3,0-0.6,0.3-0.6,0.6v9.5v0c0,0.3,0.3,0.6,0.6,0.6h20.7h0c0.3,0,0.6-0.3,0.6-0.6v-9.5c0-0.3-0.3-0.6-0.6-0.6
	C24.1,14.7,23.8,15,23.8,15.3L23.8,15.3z M4.3,5.1L4.3,5.1c0,0.3-0.3,0.6-0.6,0.6c-0.3,0-0.6-0.3-0.6-0.6V3.2c0-0.3,0.3-0.6,0.6-0.6
	h0h20.7c0.3,0,0.6,0.3,0.6,0.6v0v1.9c0,0.3-0.3,0.6-0.6,0.6c-0.3,0-0.6-0.3-0.6-0.6V3.8H4.3V5.1L4.3,5.1z M0.9,6.6L0.9,6.6
	c0-0.6,0.5-1,1-1c0.6,0,1,0.5,1,1v6.2c0,0.6-0.4,1-1,1c-0.6,0-1-0.5-1-1V6.6L0.9,6.6z M4.4,6.6L4.4,6.6v6.2c0,0.6,0.5,1,1,1
	c0.6,0,1-0.5,1-1V6.6c0-0.6-0.5-1-1-1C4.9,5.6,4.4,6.1,4.4,6.6L4.4,6.6z M7.9,6.6L7.9,6.6v6.2c0,0.6,0.5,1,1,1c0.6,0,1-0.5,1-1V6.6
	c0-0.6-0.4-1-1-1C8.3,5.6,7.9,6.1,7.9,6.6L7.9,6.6z M11.3,6.6L11.3,6.6v6.2c0,0.6,0.5,1,1,1c0.6,0,1-0.5,1-1V6.6c0-0.6-0.5-1-1-1
	C11.8,5.6,11.3,6.1,11.3,6.6L11.3,6.6z M14.8,6.6L14.8,6.6v6.2c0,0.6,0.5,1,1,1c0.6,0,1-0.5,1-1V6.6c0-0.6-0.5-1-1-1
	C15.2,5.6,14.8,6.1,14.8,6.6L14.8,6.6z M18.2,6.6L18.2,6.6v6.2c0,0.6,0.5,1,1,1c0.6,0,1-0.5,1-1V6.6c0-0.6-0.5-1-1-1
	C18.7,5.6,18.2,6.1,18.2,6.6L18.2,6.6z M21.7,6.6L21.7,6.6v6.2c0,0.6,0.4,1,1,1c0.6,0,1-0.5,1-1V6.6c0-0.6-0.4-1-1-1
	C22.1,5.6,21.7,6.1,21.7,6.6L21.7,6.6z M25.2,6.6L25.2,6.6c0-0.6,0.5-1,1-1c0.6,0,1,0.5,1,1v6.2c0,0.6-0.5,1-1,1c-0.6,0-1-0.5-1-1
	V6.6L25.2,6.6z M11.8,15.7L11.8,15.7c0-0.3,0.3-0.6,0.6-0.6c0.3,0,0.6,0.3,0.6,0.6v6.9c0,0.3-0.3,0.6-0.6,0.6h0h-6
	c-0.3,0-0.6-0.3-0.6-0.6v0v-6.9c0-0.3,0.3-0.6,0.6-0.6c0.3,0,0.6,0.3,0.6,0.6V22h4.8V15.7L11.8,15.7z"/>
</svg>
