<?xml version="1.0" encoding="utf-8"?>
<!-- Generator: Adobe Illustrator 18.0.0, SVG Export Plug-In . SVG Version: 6.00 Build 0)  -->
<!DOCTYPE svg PUBLIC "-//W3C//DTD SVG 1.1//EN" "http://www.w3.org/Graphics/SVG/1.1/DTD/svg11.dtd">
<svg version="1.1" id="Layer_1" xmlns="http://www.w3.org/2000/svg" xmlns:xlink="http://www.w3.org/1999/xlink" x="0px" y="0px"
	 viewBox="0 0 28.4 28.4" enable-background="new 0 0 28.4 28.4" xml:space="preserve">
<g>
	<g>
		<path fill="#50453D" d="M25.4,12.6H2.4c-0.4,0-0.8-0.3-1-0.7c-0.1-0.4,0-0.9,0.4-1.1L13.4,3c0.3-0.2,0.8-0.2,1.1,0L26,10.8
			c0.4,0.2,0.5,0.7,0.4,1.1C26.2,12.3,25.8,12.6,25.4,12.6L25.4,12.6z M5.7,10.6h16.5L13.9,5L5.7,10.6L5.7,10.6z"/>
	</g>
	<g>
		<g>
			<path fill="#50453D" d="M5.3,22.5c-0.6,0-1-0.4-1-1V12c0-0.6,0.4-1,1-1c0.6,0,1,0.4,1,1v9.5C6.3,22.1,5.9,22.5,5.3,22.5L5.3,22.5
				z"/>
		</g>
		<g>
			<path fill="#50453D" d="M22.5,22.5c-0.6,0-1-0.4-1-1V12c0-0.6,0.4-1,1-1c0.6,0,1,0.4,1,1v9.5C23.5,22.1,23.1,22.5,22.5,22.5
				L22.5,22.5z"/>
		</g>
		<g>
			<path fill="#50453D" d="M9.6,22.5c-0.6,0-1-0.4-1-1V12c0-0.6,0.4-1,1-1c0.6,0,1,0.4,1,1v9.5C10.6,22.1,10.2,22.5,9.6,22.5
				L9.6,22.5z"/>
		</g>
		<g>
			<path fill="#50453D" d="M13.9,22.5c-0.6,0-1-0.4-1-1V12c0-0.6,0.4-1,1-1c0.6,0,1,0.4,1,1v9.5C14.9,22.1,14.5,22.5,13.9,22.5
				L13.9,22.5z"/>
		</g>
		<g>
			<path fill="#50453D" d="M18.2,22.5c-0.6,0-1-0.4-1-1V12c0-0.6,0.4-1,1-1c0.6,0,1,0.4,1,1v9.5C19.2,22.1,18.8,22.5,18.2,22.5
				L18.2,22.5z"/>
		</g>
	</g>
	<g>
		<path fill="#50453D" d="M24.1,22.6H3.7c-0.6,0-1-0.4-1-1c0-0.6,0.4-1,1-1h20.4c0.6,0,1,0.4,1,1C25.1,22.2,24.7,22.6,24.1,22.6
			L24.1,22.6z"/>
	</g>
	<g>
		<path fill="#50453D" d="M26.1,25.5H1.7c-0.6,0-1-0.4-1-1c0-0.6,0.4-1,1-1h24.4c0.6,0,1,0.4,1,1C27.1,25.1,26.7,25.5,26.1,25.5
			L26.1,25.5z"/>
	</g>
</g>
</svg>
