<?xml version="1.0" encoding="utf-8"?>
<!-- Generator: Adobe Illustrator 18.0.0, SVG Export Plug-In . SVG Version: 6.00 Build 0)  -->
<!DOCTYPE svg PUBLIC "-//W3C//DTD SVG 1.1//EN" "http://www.w3.org/Graphics/SVG/1.1/DTD/svg11.dtd">
<svg version="1.1" id="Layer_1" xmlns="http://www.w3.org/2000/svg" xmlns:xlink="http://www.w3.org/1999/xlink" x="0px" y="0px"
	 viewBox="0 0 28.4 28.4" enable-background="new 0 0 28.4 28.4" xml:space="preserve">
<g id="rect3815">
	<linearGradient id="SVGID_1_" gradientUnits="userSpaceOnUse" x1="13.7687" y1="3.8949" x2="13.7687" y2="24.881">
		<stop  offset="0" style="stop-color:#4B4B4B"/>
		<stop  offset="1" style="stop-color:#434343"/>
	</linearGradient>
	<path fill="url(#SVGID_1_)" d="M18.4,24.9l-4.7-2.6l-4.7,2.6l1.1-5.1l-4-3.5l5.4-0.5l2.2-4.8l2.2,4.8l5.4,0.6l-4,3.5L18.4,24.9z
		 M13.8,21l3,1.7l-0.7-3.4l2.6-2.3l-3.5-0.4l-1.4-3.2l-1.4,3.1L8.9,17l2.6,2.3l-0.7,3.4L13.8,21z M15.8,14.2l-2.1-5l-2.1,4.9
		l-2.8-2.3V5.3c0-0.7,0.5-1.2,1.3-1.4l0.1,0h7.2c0.8,0,1.5,0.7,1.5,1.4v6.5L15.8,14.2z M13.7,6.5l2.6,6l1.4-1.2v-6
		c0-0.1-0.2-0.3-0.3-0.3h-7.1c-0.2,0.1-0.4,0.2-0.4,0.3v6l1.3,1L13.7,6.5z"/>
</g>
</svg>
