<?xml version="1.0" encoding="utf-8"?>
<!-- Generator: Adobe Illustrator 18.0.0, SVG Export Plug-In . SVG Version: 6.00 Build 0)  -->
<!DOCTYPE svg PUBLIC "-//W3C//DTD SVG 1.1//EN" "http://www.w3.org/Graphics/SVG/1.1/DTD/svg11.dtd">
<svg version="1.1" id="Layer_1" xmlns="http://www.w3.org/2000/svg" xmlns:xlink="http://www.w3.org/1999/xlink" x="0px" y="0px"
	 viewBox="0 0 28.4 28.4" enable-background="new 0 0 28.4 28.4" xml:space="preserve">
<g>
	<g>
		<path fill="#50453D" d="M13.9,27.6c-2.7,0-5.3-2.1-9.4-6.3c-1.1-1.2-1.8-3.2-1.8-4.5V6.9c0-1.5,1.1-3,2.6-3.5
			c5.5-1.8,11.6-1.8,17.2,0c1.4,0.5,2.6,2,2.6,3.5v9.9c0,1.3-0.7,3.3-1.8,4.5C19.2,25.4,16.6,27.6,13.9,27.6L13.9,27.6z M13.9,4
			c-2.7,0-5.4,0.4-8,1.3C5.3,5.5,4.7,6.2,4.7,6.9v9.9c0,0.9,0.5,2.4,1.2,3.1c3.6,3.7,6,5.7,8,5.7c2,0,4.3-2,8-5.7
			c0.7-0.7,1.2-2.2,1.2-3.1V6.9c0-0.6-0.6-1.4-1.2-1.6C19.3,4.4,16.6,4,13.9,4L13.9,4z"/>
	</g>
	<g>
		<path fill="#50453D" d="M13.9,24.1c-1.6,0-4.3-2.6-6.9-5.3c-0.4-0.4-0.8-1.5-0.8-2V7.1c0-0.2,0.1-0.4,0.3-0.5
			c4.8-1.5,9.9-1.5,14.7,0c0.2,0.1,0.3,0.3,0.3,0.5v9.6c0,0.5-0.4,1.6-0.8,2.1C18.2,21.5,15.5,24.1,13.9,24.1L13.9,24.1z M7.2,7.5
			v9.2c0,0.3,0.3,1.2,0.5,1.4c1.5,1.5,4.9,5,6.2,5c1.3,0,4.7-3.5,6.1-5c0.2-0.2,0.5-1.1,0.5-1.4V7.5C16.3,6.2,11.6,6.2,7.2,7.5
			L7.2,7.5z"/>
	</g>
</g>
</svg>
