<?xml version="1.0" encoding="utf-8"?>
<!-- Generator: Adobe Illustrator 18.0.0, SVG Export Plug-In . SVG Version: 6.00 Build 0)  -->
<!DOCTYPE svg PUBLIC "-//W3C//DTD SVG 1.1//EN" "http://www.w3.org/Graphics/SVG/1.1/DTD/svg11.dtd">
<svg version="1.1" id="Layer_1" xmlns="http://www.w3.org/2000/svg" xmlns:xlink="http://www.w3.org/1999/xlink" x="0px" y="0px"
	 viewBox="0 0 28.4 28.4" enable-background="new 0 0 28.4 28.4" xml:space="preserve">
<g>
	<path fill="#50453D" d="M10.4,27.1c-0.1,0-0.3,0-0.4-0.1c-0.4-0.2-0.7-0.7-0.5-1.2l2.4-8.6H7.7c-0.4,0-0.7-0.2-0.9-0.5
		c-0.2-0.3-0.1-0.7,0.1-1L17.1,1.6c0.3-0.4,0.8-0.5,1.2-0.3c0.4,0.2,0.7,0.7,0.5,1.2l-2.4,8.6h4.1c0.4,0,0.7,0.2,0.9,0.5
		c0.2,0.3,0.1,0.7-0.1,1L11.2,26.7C11,27,10.7,27.1,10.4,27.1L10.4,27.1z M9.7,15.3h3.5c0.3,0,0.6,0.1,0.8,0.4
		c0.2,0.2,0.3,0.6,0.2,0.9L12.9,21l5.8-8h-3.5c-0.3,0-0.6-0.1-0.8-0.4c-0.2-0.2-0.2-0.6-0.2-0.9l1.3-4.5L9.7,15.3L9.7,15.3z"/>
</g>
</svg>
