<?xml version="1.0" encoding="utf-8"?>
<!-- Generator: Adobe Illustrator 16.0.4, SVG Export Plug-In . SVG Version: 6.00 Build 0)  -->
<!DOCTYPE svg PUBLIC "-//W3C//DTD SVG 1.1//EN" "http://www.w3.org/Graphics/SVG/1.1/DTD/svg11.dtd">
<svg version="1.1" id="Warstwa_1" xmlns="http://www.w3.org/2000/svg" xmlns:xlink="http://www.w3.org/1999/xlink" x="0px" y="0px"
	 width="34.539px" height="34.221px" viewBox="0 0 34.539 34.221" enable-background="new 0 0 34.539 34.221" xml:space="preserve">
<g>
	<g>
		<path fill="#FFFFFF" d="M2.058,15.456c-0.854-0.001-1.546,0.69-1.545,1.545c0,0.854,0.693,1.548,1.546,1.548
			c7.673,0.011,13.922,6.26,13.93,13.931c0,0.427,0.174,0.812,0.454,1.094c0.28,0.28,0.667,0.453,1.094,0.453
			c0.854,0.001,1.544-0.691,1.544-1.545C19.071,23.105,11.435,15.469,2.058,15.456z M2.051,7.727
			C1.197,7.726,0.506,8.417,0.506,9.272c0.001,0.854,0.694,1.547,1.547,1.548c11.938,0.011,21.657,9.729,21.667,21.665
			c0,0.428,0.173,0.813,0.453,1.094c0.279,0.28,0.666,0.453,1.094,0.454c0.854,0.001,1.545-0.689,1.545-1.545
			C26.798,18.848,15.693,7.739,2.051,7.727z M25.001,9.54C18.859,3.396,10.705,0.008,2.041,0C1.187-0.001,0.495,0.691,0.495,1.545
			c0,0.854,0.693,1.547,1.547,1.549C9.88,3.1,17.258,6.165,22.817,11.725c5.56,5.56,8.623,12.936,8.628,20.77
			c0,0.428,0.174,0.814,0.454,1.095c0.279,0.28,0.666,0.453,1.093,0.453c0.854,0.001,1.547-0.689,1.547-1.544
			C34.533,23.837,31.146,15.684,25.001,9.54z M5,24.22c-2.761,0-5,2.238-5,5c0,2.761,2.239,5,5,5s5-2.239,5-5
			C10,26.459,7.761,24.22,5,24.22z M5,32.47c-1.795,0-3.25-1.455-3.25-3.25c0-1.796,1.455-3.25,3.25-3.25s3.25,1.454,3.25,3.25
			C8.25,31.015,6.795,32.47,5,32.47z"/>
	</g>
</g>
</svg>
