<?xml version="1.0" encoding="utf-8"?>
<!-- Generator: Adobe Illustrator 16.0.4, SVG Export Plug-In . SVG Version: 6.00 Build 0)  -->
<!DOCTYPE svg PUBLIC "-//W3C//DTD SVG 1.1//EN" "http://www.w3.org/Graphics/SVG/1.1/DTD/svg11.dtd">
<svg version="1.1" id="Warstwa_1" xmlns="http://www.w3.org/2000/svg" xmlns:xlink="http://www.w3.org/1999/xlink" x="0px" y="0px"
	 width="57.818px" height="30.871px" viewBox="0 0 57.818 30.871" enable-background="new 0 0 57.818 30.871" xml:space="preserve">
<g>
	<g>
		<path fill="#FFFFFF" d="M57.391,14.562l-17.02-14.28c-0.509-0.426-1.265-0.36-1.691,0.147c-0.426,0.508-0.359,1.265,0.148,1.691
			l15.924,13.36L38.924,28.751c-0.508,0.427-0.574,1.183-0.148,1.69c0.236,0.283,0.578,0.429,0.92,0.429
			c0.271,0,0.546-0.093,0.771-0.28L57.391,16.4c0.271-0.229,0.428-0.564,0.428-0.92C57.819,15.126,57.663,14.79,57.391,14.562z
			 M19.139,0.429c-0.426-0.507-1.183-0.574-1.689-0.147L0.429,14.562C0.157,14.79,0,15.126,0,15.48c0,0.355,0.158,0.691,0.43,0.92
			L17.354,30.59c0.226,0.188,0.498,0.28,0.771,0.28c0.343,0,0.684-0.146,0.921-0.429c0.426-0.508,0.358-1.266-0.148-1.69
			L3.068,15.48L18.991,2.12C19.498,1.693,19.564,0.937,19.139,0.429z M32.69,0.036c-0.643-0.16-1.295,0.232-1.453,0.875
			l-7.076,28.47c-0.159,0.645,0.231,1.295,0.875,1.454c0.098,0.024,0.194,0.036,0.291,0.036c0.537,0,1.026-0.365,1.162-0.911
			l7.076-28.47C33.725,0.847,33.333,0.195,32.69,0.036z"/>
	</g>
</g>
</svg>
