<?xml version="1.0" encoding="utf-8"?>
<!-- Generator: Adobe Illustrator 16.0.4, SVG Export Plug-In . SVG Version: 6.00 Build 0)  -->
<!DOCTYPE svg PUBLIC "-//W3C//DTD SVG 1.1//EN" "http://www.w3.org/Graphics/SVG/1.1/DTD/svg11.dtd">
<svg version="1.1" id="Warstwa_1" xmlns="http://www.w3.org/2000/svg" xmlns:xlink="http://www.w3.org/1999/xlink" x="0px" y="0px"
	 width="53.051px" height="47.031px" viewBox="0 0 53.051 47.031" enable-background="new 0 0 53.051 47.031" xml:space="preserve">
<g>
	<g>
		<path fill="#FFFFFF" d="M10.442,27.637c0.257,0,0.514-0.102,0.71-0.303c0.248-0.253,0.323-0.603,0.264-0.931
			c0.035-0.131,0.045-0.271,0.026-0.414c-0.224-1.704,0.411-2.356,1.215-3.182l9.348-9.647c0.395-0.407,0.395-1.065,0-1.474
			s-1.034-0.407-1.428,0l-9.238,9.533l-0.107,0.108c-0.629,0.646-1.409,1.473-1.715,2.819l-7.04-7.336
			c-0.743-0.768-0.581-2.184,0.362-3.155l10.392-10.72c0.478-0.494,1.077-0.793,1.685-0.844c0.545-0.047,1.034,0.12,1.373,0.47
			l6.874,7.093c0.395,0.407,1.034,0.407,1.428,0.001c0.395-0.407,0.395-1.067,0-1.475l-6.873-7.094
			C16.954,0.3,15.9-0.082,14.754,0.015c-1.086,0.09-2.134,0.604-2.951,1.446L1.412,12.185c-1.73,1.785-1.892,4.522-0.365,6.1
			l8.677,9.043C9.922,27.533,10.182,27.637,10.442,27.637z M25.27,37.778c0.001-0.055,0.013-0.107,0.012-0.162
			c-0.023-0.935-0.395-1.819-1.046-2.492c-0.714-0.735-1.651-1.087-2.571-1.067c0.001-0.055,0.013-0.106,0.011-0.161
			c-0.023-0.935-0.395-1.819-1.046-2.491c-0.714-0.736-1.651-1.088-2.571-1.068c0.001-0.055,0.013-0.105,0.011-0.162
			c-0.023-0.934-0.395-1.817-1.046-2.49c-1.359-1.402-3.533-1.443-4.846-0.089l-1.664,1.717l0,0l-0.462,0.478
			c-1.311,1.354-1.271,3.598,0.088,4.999c0.696,0.719,1.605,1.079,2.502,1.079c0.023,0,0.045-0.006,0.068-0.007
			c-0.018,0.948,0.323,1.914,1.036,2.648c0.696,0.719,1.604,1.079,2.502,1.079c0.023,0,0.045-0.006,0.069-0.007
			c-0.017,0.948,0.323,1.913,1.036,2.649c0.695,0.718,1.604,1.078,2.502,1.078c0.023,0,0.045-0.006,0.068-0.007
			c-0.001,0.054-0.013,0.104-0.011,0.157c0.023,0.935,0.396,1.819,1.047,2.491c0.651,0.673,1.509,1.057,2.414,1.08
			c0.031,0.001,0.06,0.001,0.091,0.001c0.89,0,1.718-0.35,2.339-0.99l1.664-1.718c0.001-0.001,0.001-0.002,0.002-0.003l0.463-0.477
			c1.312-1.354,1.271-3.597-0.089-4.998C27.127,38.109,26.19,37.759,25.27,37.778z M13.553,33.402
			c-0.524,0.54-1.415,0.499-1.987-0.09c-0.572-0.591-0.611-1.511-0.088-2.051l1.666-1.719c0.001-0.001,0.001-0.003,0.002-0.004
			l0.459-0.474c0.525-0.541,1.417-0.501,1.988,0.089c0.284,0.294,0.446,0.674,0.456,1.071c0.009,0.377-0.122,0.725-0.368,0.979
			l-0.546,0.564L13.553,33.402z M17.622,36.646l-0.461,0.477c-0.525,0.541-1.417,0.5-1.988-0.089
			c-0.572-0.591-0.611-1.511-0.088-2.051c0.304-0.313,1.362-1.405,1.666-1.719c0.001-0.001,0.001-0.002,0.002-0.003l0.459-0.476
			c0.524-0.54,1.416-0.5,1.987,0.09c0.284,0.293,0.446,0.674,0.456,1.071c0.009,0.377-0.122,0.726-0.369,0.98L17.622,36.646
			C17.623,36.646,17.623,36.646,17.622,36.646z M20.766,40.845c-0.523,0.54-1.416,0.499-1.987-0.091
			c-0.572-0.591-0.611-1.511-0.088-2.051c0.237-0.243,0.927-0.956,1.366-1.409l0.762-0.785c0.525-0.541,1.416-0.5,1.988,0.09
			c0.284,0.293,0.446,0.673,0.456,1.069c0.009,0.377-0.122,0.727-0.37,0.98l-0.699,0.722L20.766,40.845z M26.5,42.37l-1.665,1.718
			c-0.001,0.001-0.001,0.002-0.002,0.003l-0.461,0.477c-0.247,0.255-0.584,0.391-0.949,0.38c-0.385-0.011-0.754-0.177-1.038-0.471
			c-0.284-0.293-0.446-0.673-0.456-1.07c-0.009-0.377,0.121-0.726,0.368-0.979l0.463-0.479l0,0l1.663-1.718
			c0.524-0.54,1.416-0.5,1.988,0.091C26.984,40.91,27.023,41.83,26.5,42.37z M51.717,11.881L42.95,2.834
			c-0.698-0.721-1.57-1.191-2.456-1.328c-0.982-0.149-1.905,0.134-2.533,0.781l-4.22,4.354c-0.198,0.204-0.298,0.472-0.296,0.739
			c-1.631-0.219-3.381,0.292-4.719,1.581l-7.121,6.643c-0.255,0.237-0.375,0.593-0.319,0.941l2.157,13.519
			c0.076,0.476,0.458,0.836,0.924,0.871c0.032,0.002,0.213,0.015,0.497,0.015c1.142,0,3.949-0.203,5.443-2.077
			c0.977-1.223,1.205-2.851,0.68-4.839c-0.785-2.978,0.006-4.396,1.023-5.08l7.793,8.041v0.001l2.063,2.129
			C42.6,29.881,42.751,31,42.197,31.57c-0.247,0.257-0.613,0.376-1.028,0.34c-0.474-0.043-0.962-0.29-1.34-0.681l-2.063-2.13
			c-0.396-0.407-1.033-0.407-1.429,0c-0.019,0.019-0.024,0.043-0.041,0.062c-0.019,0.018-0.043,0.023-0.062,0.042
			c-0.396,0.407-0.396,1.067,0,1.476l2.062,2.13c0.379,0.39,0.619,0.894,0.66,1.383c0.036,0.429-0.081,0.805-0.33,1.062
			c-0.553,0.57-1.637,0.414-2.369-0.341l-2.062-2.129c-0.396-0.407-1.034-0.407-1.43,0c-0.018,0.02-0.023,0.043-0.039,0.062
			c-0.021,0.017-0.045,0.022-0.062,0.042c-0.395,0.406-0.395,1.066,0,1.475l2.064,2.13c0.377,0.39,0.617,0.895,0.658,1.383
			c0.036,0.429-0.08,0.806-0.33,1.062c-0.248,0.257-0.613,0.377-1.027,0.34c-0.475-0.043-0.963-0.29-1.34-0.681l-2.064-2.132
			c-0.396-0.405-1.035-0.405-1.43,0.003c-0.019,0.019-0.024,0.044-0.041,0.062c-0.02,0.017-0.043,0.022-0.061,0.041
			c-0.395,0.407-0.395,1.067,0,1.475l2.063,2.13c0.731,0.755,0.883,1.875,0.329,2.444c-0.395,0.407-0.395,1.067,0,1.476
			c0.197,0.202,0.457,0.305,0.716,0.305c0.258,0,0.519-0.103,0.715-0.306c0.702-0.727,0.989-1.729,0.896-2.748
			c0.015,0.002,0.026,0.007,0.041,0.008c0.109,0.01,0.219,0.015,0.326,0.015c0.893,0,1.7-0.334,2.305-0.957
			c0.679-0.699,1.002-1.664,0.914-2.717c-0.002-0.018-0.008-0.035-0.008-0.053c0.117,0.012,0.236,0.038,0.354,0.038
			c0.863,0,1.691-0.313,2.311-0.952c0.678-0.699,1.002-1.664,0.912-2.717c-0.001-0.011-0.004-0.021-0.005-0.03
			c0.011,0.001,0.021,0.005,0.03,0.006c0.109,0.01,0.219,0.015,0.326,0.015c0.892,0,1.701-0.334,2.306-0.958
			c1.351-1.393,1.202-3.812-0.329-5.393l-2.064-2.13c0,0,0,0,0-0.001l-8.101-8.358c-0.239-0.453-0.758-0.677-1.237-0.484
			c-1.05,0.418-4.356,2.224-2.855,7.905c0.342,1.295,0.245,2.291-0.288,2.961c-0.769,0.968-2.373,1.259-3.453,1.313L23.367,16.77
			l6.723-6.271c1.493-1.438,3.732-1.476,5.008-0.064l9.137,9.59c0.576,0.636,0.826,1.554,0.709,2.582
			c-0.118,1.017-0.588,2-1.295,2.717l-0.162,0.097c-0.481,0.289-0.646,0.928-0.366,1.426c0.278,0.498,0.896,0.668,1.38,0.38
			l0.268-0.159c0.065-0.04,0.127-0.087,0.184-0.142c1.094-1.053,1.822-2.536,2-4.07c0.018-0.156,0.025-0.312,0.031-0.464
			c0.072-0.044,0.147-0.08,0.211-0.145l5.051-5.213C53.497,15.739,53.266,13.478,51.717,11.881z M50.818,15.556l-4.252,4.388
			c-0.213-0.499-0.504-0.958-0.871-1.364l-9.135-9.59C36.186,8.574,35.745,8.262,35.282,8l4.108-4.238
			c0.231-0.24,0.604-0.226,0.807-0.193c0.453,0.07,0.936,0.34,1.324,0.741l8.768,9.047C51.072,14.164,51.197,15.164,50.818,15.556z"
			/>
	</g>
</g>
</svg>
